<svg xmlns="http://www.w3.org/2000/svg" version="1.1" xmlns:xlink="http://www.w3.org/1999/xlink" xmlns:svgjs="http://svgjs.com/svgjs" width="5000" height="600" preserveAspectRatio="none" viewBox="0 0 5000 600">
    <g mask="url(&quot;#SvgjsMask1788&quot;)" fill="none">
        <g transform="translate(-1000, 0)" stroke-linecap="round" stroke="url(#SvgjsLinearGradient1789)">
            <path d="M1015 229.67 L1015 262.66999999999996" stroke-width="16.5"></path>
            <path d="M1015 287.41999999999996 L1015 320.41999999999996" stroke-width="16.5"></path>
            <path d="M1015 345.16999999999996 L1015 370.33" stroke-width="16.5"></path>
            <path d="M1037 149.03 L1037 450.97" stroke-width="16.5"></path>
            <path d="M1059 156.86 L1059 189.86" stroke-width="16.5"></path>
            <path d="M1059 214.61 L1059 363.11" stroke-width="16.5"></path>
            <path d="M1059 387.86 L1059 443.14" stroke-width="16.5"></path>
            <path d="M1081 135.47 L1081 217.97" stroke-width="16.5"></path>
            <path d="M1081 242.72 L1081 391.22" stroke-width="16.5"></path>
            <path d="M1081 415.97 L1081 464.52" stroke-width="16.5"></path>
            <path d="M1103 203.31 L1103 285.81" stroke-width="16.5"></path>
            <path d="M1103 310.56 L1103 343.56" stroke-width="16.5"></path>
            <path d="M1103 368.31 L1103 396.69" stroke-width="16.5"></path>
            <path d="M1125 231.3 L1125 264.3" stroke-width="16.5"></path>
            <path d="M1125 289.05 L1125 368.7" stroke-width="16.5"></path>
            <path d="M1147 171.25 L1147 237.25" stroke-width="16.5"></path>
            <path d="M1147 262 L1147 428.75" stroke-width="16.5"></path>
            <path d="M1169 265 L1169 281.5" stroke-width="16.5"></path>
            <path d="M1169 306.25 L1169 335" stroke-width="16.5"></path>
            <path d="M1191 238.74 L1191 271.74" stroke-width="16.5"></path>
            <path d="M1191 296.49 L1191 312.99" stroke-width="16.5"></path>
            <path d="M1191 337.74 L1191 361.26" stroke-width="16.5"></path>
            <path d="M1213 225.26 L1213 241.76" stroke-width="16.5"></path>
            <path d="M1213 266.51 L1213 374.74" stroke-width="16.5"></path>
            <path d="M1235 236.75 L1235 269.75" stroke-width="16.5"></path>
            <path d="M1235 294.5 L1235 311" stroke-width="16.5"></path>
            <path d="M1235 335.75 L1235 363.25" stroke-width="16.5"></path>
            <path d="M1257 282 L1257 318" stroke-width="16.5"></path>
            <path d="M1279 261 L1279 277.5" stroke-width="16.5"></path>
            <path d="M1279 302.25 L1279 339" stroke-width="16.5"></path>
            <path d="M1301 134.98000000000002 L1301 465.02" stroke-width="16.5"></path>
            <path d="M1323 170.57 L1323 253.07" stroke-width="16.5"></path>
            <path d="M1323 277.82 L1323 327.32" stroke-width="16.5"></path>
            <path d="M1323 352.07 L1323 429.43" stroke-width="16.5"></path>
            <path d="M1345 242.44 L1345 258.94" stroke-width="16.5"></path>
            <path d="M1345 283.69 L1345 357.56" stroke-width="16.5"></path>
            <path d="M1367 141.47 L1367 223.97" stroke-width="16.5"></path>
            <path d="M1367 248.72 L1367 364.22" stroke-width="16.5"></path>
            <path d="M1367 388.97 L1367 458.52" stroke-width="16.5"></path>
            <path d="M1389 223.03 L1389 272.53" stroke-width="16.5"></path>
            <path d="M1389 297.28 L1389 313.78" stroke-width="16.5"></path>
            <path d="M1389 338.53 L1389 376.98" stroke-width="16.5"></path>
            <path d="M1411 148.83 L1411 280.83000000000004" stroke-width="16.5"></path>
            <path d="M1411 305.58000000000004 L1411 355.08000000000004" stroke-width="16.5"></path>
            <path d="M1411 379.83000000000004 L1411 451.17" stroke-width="16.5"></path>
            <path d="M1433 287.77 L1433 312.23" stroke-width="16.5"></path>
            <path d="M1455 175.43 L1455 424.57" stroke-width="16.5"></path>
            <path d="M1477 271.85 L1477 328.15" stroke-width="16.5"></path>
            <path d="M1499 142.5 L1499 390" stroke-width="16.5"></path>
            <path d="M1499 414.75 L1499 457.5" stroke-width="16.5"></path>
            <path d="M1521 253.07 L1521 286.07" stroke-width="16.5"></path>
            <path d="M1521 310.82 L1521 346.93" stroke-width="16.5"></path>
            <path d="M1543 154.9 L1543 303.4" stroke-width="16.5"></path>
            <path d="M1543 328.15 L1543 445.11" stroke-width="16.5"></path>
            <path d="M1565 219.87 L1565 269.37" stroke-width="16.5"></path>
            <path d="M1565 294.12 L1565 327.12" stroke-width="16.5"></path>
            <path d="M1565 351.87 L1565 380.13" stroke-width="16.5"></path>
            <path d="M1587 140.85 L1587 272.85" stroke-width="16.5"></path>
            <path d="M1587 297.6 L1587 459.14" stroke-width="16.5"></path>
            <path d="M1609 135.1 L1609 250.6" stroke-width="16.5"></path>
            <path d="M1609 275.35 L1609 374.35" stroke-width="16.5"></path>
            <path d="M1609 399.1 L1609 464.89" stroke-width="16.5"></path>
            <path d="M1631 139.29 L1631 155.79" stroke-width="16.5"></path>
            <path d="M1631 180.54 L1631 230.04" stroke-width="16.5"></path>
            <path d="M1631 254.79 L1631 460.71" stroke-width="16.5"></path>
            <path d="M1653 195.6 L1653 294.6" stroke-width="16.5"></path>
            <path d="M1653 319.35 L1653 335.85" stroke-width="16.5"></path>
            <path d="M1653 360.6 L1653 404.4" stroke-width="16.5"></path>
            <path d="M1675 140.5 L1675 239.5" stroke-width="16.5"></path>
            <path d="M1675 264.25 L1675 459.5" stroke-width="16.5"></path>
            <path d="M1697 268.73 L1697 331.27" stroke-width="16.5"></path>
            <path d="M1719 188.89 L1719 271.39" stroke-width="16.5"></path>
            <path d="M1719 296.14 L1719 411.11" stroke-width="16.5"></path>
            <path d="M1741 203.88 L1741 302.88" stroke-width="16.5"></path>
            <path d="M1741 327.63 L1741 344.13" stroke-width="16.5"></path>
            <path d="M1741 368.88 L1741 396.12" stroke-width="16.5"></path>
            <path d="M1763 263.05 L1763 279.55" stroke-width="16.5"></path>
            <path d="M1763 304.3 L1763 336.95" stroke-width="16.5"></path>
            <path d="M1785 242.61 L1785 275.61" stroke-width="16.5"></path>
            <path d="M1785 300.36 L1785 357.39" stroke-width="16.5"></path>
            <path d="M1807 255.78 L1807 288.78" stroke-width="16.5"></path>
            <path d="M1807 313.53 L1807 344.23" stroke-width="16.5"></path>
            <path d="M1829 160.5 L1829 309" stroke-width="16.5"></path>
            <path d="M1829 333.75 L1829 366.75" stroke-width="16.5"></path>
            <path d="M1829 391.5 L1829 439.5" stroke-width="16.5"></path>
            <path d="M1851 184.14 L1851 283.14" stroke-width="16.5"></path>
            <path d="M1851 307.89 L1851 357.39" stroke-width="16.5"></path>
            <path d="M1851 382.14 L1851 415.86" stroke-width="16.5"></path>
            <path d="M1873 139.32 L1873 254.82" stroke-width="16.5"></path>
            <path d="M1873 279.57 L1873 460.68" stroke-width="16.5"></path>
            <path d="M1895 189.45 L1895 304.95" stroke-width="16.5"></path>
            <path d="M1895 329.7 L1895 362.7" stroke-width="16.5"></path>
            <path d="M1895 387.45 L1895 410.55" stroke-width="16.5"></path>
            <path d="M1917 138.06 L1917 336.06" stroke-width="16.5"></path>
            <path d="M1917 360.81 L1917 461.94" stroke-width="16.5"></path>
            <path d="M1939 176.57 L1939 292.07" stroke-width="16.5"></path>
            <path d="M1939 316.82 L1939 349.82" stroke-width="16.5"></path>
            <path d="M1939 374.57 L1939 423.43" stroke-width="16.5"></path>
            <path d="M1961 274.88 L1961 325.12" stroke-width="16.5"></path>
            <path d="M1983 143.74 L1983 209.74" stroke-width="16.5"></path>
            <path d="M1983 234.49 L1983 283.99" stroke-width="16.5"></path>
            <path d="M1983 308.74 L1983 456.26" stroke-width="16.5"></path>
            <path d="M2005 281.69 L2005 318.31" stroke-width="16.5"></path>
            <path d="M2027 162.21 L2027 294.21000000000004" stroke-width="16.5"></path>
            <path d="M2027 318.96000000000004 L2027 437.79" stroke-width="16.5"></path>
            <path d="M2049 149.88 L2049 314.88" stroke-width="16.5"></path>
            <path d="M2049 339.63 L2049 450.13" stroke-width="16.5"></path>
            <path d="M2071 131.97 L2071 412.47" stroke-width="16.5"></path>
            <path d="M2071 437.22 L2071 468.02" stroke-width="16.5"></path>
            <path d="M2093 166.21 L2093 248.71" stroke-width="16.5"></path>
            <path d="M2093 273.46000000000004 L2093 289.96000000000004" stroke-width="16.5"></path>
            <path d="M2093 314.71000000000004 L2093 433.79" stroke-width="16.5"></path>
            <path d="M2115 137.32 L2115 351.82" stroke-width="16.5"></path>
            <path d="M2115 376.57 L2115 409.57" stroke-width="16.5"></path>
            <path d="M2115 434.32 L2115 462.68" stroke-width="16.5"></path>
            <path d="M2137 275.56 L2137 324.44" stroke-width="16.5"></path>
            <path d="M2159 130.31 L2159 262.31" stroke-width="16.5"></path>
            <path d="M2159 287.06 L2159 469.69" stroke-width="16.5"></path>
            <path d="M2181 175.18 L2181 274.18" stroke-width="16.5"></path>
            <path d="M2181 298.93 L2181 424.82" stroke-width="16.5"></path>
            <path d="M2203 266.47 L2203 282.97" stroke-width="16.5"></path>
            <path d="M2203 307.72 L2203 333.53" stroke-width="16.5"></path>
            <path d="M2225 193 L2225 226" stroke-width="16.5"></path>
            <path d="M2225 250.75 L2225 267.25" stroke-width="16.5"></path>
            <path d="M2225 292 L2225 407" stroke-width="16.5"></path>
            <path d="M2247 131.74 L2247 181.24" stroke-width="16.5"></path>
            <path d="M2247 205.99 L2247 468.26" stroke-width="16.5"></path>
            <path d="M2269 183.62 L2269 315.62" stroke-width="16.5"></path>
            <path d="M2269 340.37 L2269 416.38" stroke-width="16.5"></path>
            <path d="M2291 135.35 L2291 464.65" stroke-width="16.5"></path>
            <path d="M2313 238.78 L2313 361.23" stroke-width="16.5"></path>
            <path d="M2335 220.57 L2335 253.57" stroke-width="16.5"></path>
            <path d="M2335 278.32 L2335 311.32" stroke-width="16.5"></path>
            <path d="M2335 336.07 L2335 379.43" stroke-width="16.5"></path>
            <path d="M2357 212.8 L2357 229.3" stroke-width="16.5"></path>
            <path d="M2357 254.05 L2357 270.55" stroke-width="16.5"></path>
            <path d="M2357 295.3 L2357 387.2" stroke-width="16.5"></path>
            <path d="M2379 168.36 L2379 333.36" stroke-width="16.5"></path>
            <path d="M2379 358.11 L2379 431.64" stroke-width="16.5"></path>
            <path d="M2401 203.03 L2401 252.53" stroke-width="16.5"></path>
            <path d="M2401 277.28 L2401 396.97" stroke-width="16.5"></path>
            <path d="M2423 209.93 L2423 275.93" stroke-width="16.5"></path>
            <path d="M2423 300.68 L2423 390.07" stroke-width="16.5"></path>
            <path d="M2445 144.54 L2445 210.54" stroke-width="16.5"></path>
            <path d="M2445 235.29 L2445 301.28999999999996" stroke-width="16.5"></path>
            <path d="M2445 326.03999999999996 L2445 455.46" stroke-width="16.5"></path>
            <path d="M2467 183.52 L2467 216.52" stroke-width="16.5"></path>
            <path d="M2467 241.27 L2467 290.77" stroke-width="16.5"></path>
            <path d="M2467 315.52 L2467 416.48" stroke-width="16.5"></path>
            <path d="M2489 242.33 L2489 291.83000000000004" stroke-width="16.5"></path>
            <path d="M2489 316.58000000000004 L2489 357.67" stroke-width="16.5"></path>
            <path d="M2511 143.92 L2511 275.91999999999996" stroke-width="16.5"></path>
            <path d="M2511 300.66999999999996 L2511 456.08" stroke-width="16.5"></path>
            <path d="M2533 139.21 L2533 460.79" stroke-width="16.5"></path>
            <path d="M2555 262.02 L2555 278.52" stroke-width="16.5"></path>
            <path d="M2555 303.27 L2555 337.98" stroke-width="16.5"></path>
            <path d="M2577 276.79 L2577 323.21" stroke-width="16.5"></path>
            <path d="M2599 264.36 L2599 335.64" stroke-width="16.5"></path>
            <path d="M2621 164.22 L2621 435.78" stroke-width="16.5"></path>
            <path d="M2643 200.06 L2643 233.06" stroke-width="16.5"></path>
            <path d="M2643 257.81 L2643 356.81" stroke-width="16.5"></path>
            <path d="M2643 381.56 L2643 399.94" stroke-width="16.5"></path>
            <path d="M2665 218.07 L2665 381.93" stroke-width="16.5"></path>
            <path d="M2687 194 L2687 406" stroke-width="16.5"></path>
            <path d="M2709 141.85 L2709 207.85" stroke-width="16.5"></path>
            <path d="M2709 232.6 L2709 315.1" stroke-width="16.5"></path>
            <path d="M2709 339.85 L2709 458.15" stroke-width="16.5"></path>
            <path d="M2731 283.81 L2731 316.19" stroke-width="16.5"></path>
            <path d="M2753 230.92 L2753 280.41999999999996" stroke-width="16.5"></path>
            <path d="M2753 305.16999999999996 L2753 321.66999999999996" stroke-width="16.5"></path>
            <path d="M2753 346.41999999999996 L2753 369.08" stroke-width="16.5"></path>
            <path d="M2775 173.13 L2775 305.13" stroke-width="16.5"></path>
            <path d="M2775 329.88 L2775 362.88" stroke-width="16.5"></path>
            <path d="M2775 387.63 L2775 426.87" stroke-width="16.5"></path>
            <path d="M2797 262.9 L2797 279.4" stroke-width="16.5"></path>
            <path d="M2797 304.15 L2797 337.1" stroke-width="16.5"></path>
            <path d="M2819 210.54 L2819 389.46" stroke-width="16.5"></path>
            <path d="M2841 142.88 L2841 159.38" stroke-width="16.5"></path>
            <path d="M2841 184.13 L2841 349.13" stroke-width="16.5"></path>
            <path d="M2841 373.88 L2841 457.12" stroke-width="16.5"></path>
            <path d="M2863 183.92 L2863 216.92" stroke-width="16.5"></path>
            <path d="M2863 241.67 L2863 373.66999999999996" stroke-width="16.5"></path>
            <path d="M2863 398.41999999999996 L2863 416.08" stroke-width="16.5"></path>
            <path d="M2885 141.78 L2885 356.28" stroke-width="16.5"></path>
            <path d="M2885 381.03 L2885 414.03" stroke-width="16.5"></path>
            <path d="M2885 438.78 L2885 458.23" stroke-width="16.5"></path>
            <path d="M2907 225.27 L2907 258.27" stroke-width="16.5"></path>
            <path d="M2907 283.02 L2907 316.02" stroke-width="16.5"></path>
            <path d="M2907 340.77 L2907 374.73" stroke-width="16.5"></path>
            <path d="M2929 158.51 L2929 441.49" stroke-width="16.5"></path>
            <path d="M2951 223.75 L2951 256.75" stroke-width="16.5"></path>
            <path d="M2951 281.5 L2951 314.5" stroke-width="16.5"></path>
            <path d="M2951 339.25 L2951 376.25" stroke-width="16.5"></path>
            <path d="M2973 247.35 L2973 263.85" stroke-width="16.5"></path>
            <path d="M2973 288.6 L2973 305.1" stroke-width="16.5"></path>
            <path d="M2973 329.85 L2973 352.65" stroke-width="16.5"></path>
            <path d="M2995 273.32 L2995 326.68" stroke-width="16.5"></path>
            <path d="M3017 213.05 L3017 246.05" stroke-width="16.5"></path>
            <path d="M3017 270.8 L3017 386.95" stroke-width="16.5"></path>
            <path d="M3039 268.8 L3039 331.2" stroke-width="16.5"></path>
            <path d="M3061 273.43 L3061 326.57" stroke-width="16.5"></path>
            <path d="M3083 218.86 L3083 251.86" stroke-width="16.5"></path>
            <path d="M3083 276.61 L3083 293.11" stroke-width="16.5"></path>
            <path d="M3083 317.86 L3083 381.14" stroke-width="16.5"></path>
            <path d="M3105 203.44 L3105 252.94" stroke-width="16.5"></path>
            <path d="M3105 277.69 L3105 343.69" stroke-width="16.5"></path>
            <path d="M3105 368.44 L3105 396.56" stroke-width="16.5"></path>
            <path d="M3127 262.15999999999997 L3127 337.84" stroke-width="16.5"></path>
            <path d="M3149 168.95 L3149 431.05" stroke-width="16.5"></path>
            <path d="M3171 183.09 L3171 315.09000000000003" stroke-width="16.5"></path>
            <path d="M3171 339.84000000000003 L3171 372.84000000000003" stroke-width="16.5"></path>
            <path d="M3171 397.59000000000003 L3171 416.91" stroke-width="16.5"></path>
            <path d="M3193 256.94 L3193 343.06" stroke-width="16.5"></path>
            <path d="M3215 273.02 L3215 326.98" stroke-width="16.5"></path>
            <path d="M3237 280.76 L3237 319.24" stroke-width="16.5"></path>
            <path d="M3259 202.12 L3259 301.12" stroke-width="16.5"></path>
            <path d="M3259 325.87 L3259 397.88" stroke-width="16.5"></path>
            <path d="M3281 178.25 L3281 293.75" stroke-width="16.5"></path>
            <path d="M3281 318.5 L3281 335" stroke-width="16.5"></path>
            <path d="M3281 359.75 L3281 421.75" stroke-width="16.5"></path>
            <path d="M3303 201.22 L3303 398.77" stroke-width="16.5"></path>
            <path d="M3325 238.24 L3325 254.74" stroke-width="16.5"></path>
            <path d="M3325 279.49 L3325 312.49" stroke-width="16.5"></path>
            <path d="M3325 337.24 L3325 361.76" stroke-width="16.5"></path>
            <path d="M3347 228.34 L3347 277.84000000000003" stroke-width="16.5"></path>
            <path d="M3347 302.59000000000003 L3347 319.09000000000003" stroke-width="16.5"></path>
            <path d="M3347 343.84000000000003 L3347 371.66" stroke-width="16.5"></path>
            <path d="M3369 242.68 L3369 259.18" stroke-width="16.5"></path>
            <path d="M3369 283.93 L3369 300.43" stroke-width="16.5"></path>
            <path d="M3369 325.18 L3369 357.32" stroke-width="16.5"></path>
            <path d="M3391 197.84 L3391 263.84000000000003" stroke-width="16.5"></path>
            <path d="M3391 288.59000000000003 L3391 321.59000000000003" stroke-width="16.5"></path>
            <path d="M3391 346.34000000000003 L3391 402.15" stroke-width="16.5"></path>
            <path d="M3413 226.97 L3413 373.02" stroke-width="16.5"></path>
            <path d="M3435 148.32 L3435 346.32" stroke-width="16.5"></path>
            <path d="M3435 371.07 L3435 404.07" stroke-width="16.5"></path>
            <path d="M3435 428.82 L3435 451.68" stroke-width="16.5"></path>
            <path d="M3457 146.18 L3457 453.82" stroke-width="16.5"></path>
            <path d="M3479 176.66 L3479 341.65999999999997" stroke-width="16.5"></path>
            <path d="M3479 366.40999999999997 L3479 423.35" stroke-width="16.5"></path>
            <path d="M3501 255.27 L3501 271.77" stroke-width="16.5"></path>
            <path d="M3501 296.52 L3501 344.73" stroke-width="16.5"></path>
            <path d="M3523 286.45 L3523 313.55" stroke-width="16.5"></path>
            <path d="M3545 239.6 L3545 272.6" stroke-width="16.5"></path>
            <path d="M3545 297.35 L3545 313.85" stroke-width="16.5"></path>
            <path d="M3545 338.6 L3545 360.4" stroke-width="16.5"></path>
            <path d="M3567 276.4 L3567 323.6" stroke-width="16.5"></path>
            <path d="M3589 213.75 L3589 386.25" stroke-width="16.5"></path>
            <path d="M3611 289.98 L3611 310.02" stroke-width="16.5"></path>
            <path d="M3633 170.21 L3633 252.71" stroke-width="16.5"></path>
            <path d="M3633 277.46000000000004 L3633 310.46000000000004" stroke-width="16.5"></path>
            <path d="M3633 335.21000000000004 L3633 429.79" stroke-width="16.5"></path>
            <path d="M3655 211.71 L3655 261.21000000000004" stroke-width="16.5"></path>
            <path d="M3655 285.96000000000004 L3655 318.96000000000004" stroke-width="16.5"></path>
            <path d="M3655 343.71000000000004 L3655 388.29" stroke-width="16.5"></path>
            <path d="M3677 193.19 L3677 242.69" stroke-width="16.5"></path>
            <path d="M3677 267.44 L3677 406.81" stroke-width="16.5"></path>
            <path d="M3699 281.87 L3699 318.13" stroke-width="16.5"></path>
            <path d="M3721 225.33 L3721 374.67" stroke-width="16.5"></path>
            <path d="M3743 219.43 L3743 268.93" stroke-width="16.5"></path>
            <path d="M3743 293.68 L3743 326.68" stroke-width="16.5"></path>
            <path d="M3743 351.43 L3743 380.57" stroke-width="16.5"></path>
            <path d="M3765 236.47 L3765 302.47" stroke-width="16.5"></path>
            <path d="M3765 327.22 L3765 363.52" stroke-width="16.5"></path>
            <path d="M3787 186.17 L3787 318.16999999999996" stroke-width="16.5"></path>
            <path d="M3787 342.91999999999996 L3787 413.83" stroke-width="16.5"></path>
            <path d="M3809 215.41 L3809 231.91" stroke-width="16.5"></path>
            <path d="M3809 256.65999999999997 L3809 384.6" stroke-width="16.5"></path>
            <path d="M3831 176.75 L3831 292.25" stroke-width="16.5"></path>
            <path d="M3831 317 L3831 350" stroke-width="16.5"></path>
            <path d="M3831 374.75 L3831 423.25" stroke-width="16.5"></path>
            <path d="M3853 216.67 L3853 332.16999999999996" stroke-width="16.5"></path>
            <path d="M3853 356.91999999999996 L3853 383.33" stroke-width="16.5"></path>
            <path d="M3875 238.47 L3875 271.47" stroke-width="16.5"></path>
            <path d="M3875 296.22 L3875 312.72" stroke-width="16.5"></path>
            <path d="M3875 337.47 L3875 361.53" stroke-width="16.5"></path>
            <path d="M3897 130.70999999999998 L3897 213.20999999999998" stroke-width="16.5"></path>
            <path d="M3897 237.95999999999998 L3897 369.96" stroke-width="16.5"></path>
            <path d="M3897 394.71 L3897 469.29" stroke-width="16.5"></path>
            <path d="M3919 150.91 L3919 282.90999999999997" stroke-width="16.5"></path>
            <path d="M3919 307.65999999999997 L3919 406.65999999999997" stroke-width="16.5"></path>
            <path d="M3919 431.40999999999997 L3919 449.09" stroke-width="16.5"></path>
            <path d="M3941 134.76 L3941 266.76" stroke-width="16.5"></path>
            <path d="M3941 291.51 L3941 390.51" stroke-width="16.5"></path>
            <path d="M3941 415.26 L3941 465.24" stroke-width="16.5"></path>
            <path d="M3963 130.78 L3963 469.22" stroke-width="16.5"></path>
            <path d="M3985 191.84 L3985 274.34000000000003" stroke-width="16.5"></path>
            <path d="M3985 299.09000000000003 L3985 332.09000000000003" stroke-width="16.5"></path>
            <path d="M3985 356.84000000000003 L3985 408.15" stroke-width="16.5"></path>
        </g>
    </g>
    <defs>
        <mask id="SvgjsMask1788">
            <rect width="5000" height="600" fill="#ffffff"></rect>
        </mask>
        <linearGradient x1="3340" y1="-539.988" x2="1660" y2="1139.9879999999998" gradientUnits="userSpaceOnUse" id="SvgjsLinearGradient1789">
            <stop stop-color="rgba(26, 161, 250, 0.4)" offset="0.08"></stop>
            <stop stop-color="rgba(44, 230, 207, 0.65)" offset="0.2"></stop>
            <stop stop-color="rgba(243, 185, 59, 0.65)" offset="0.32"></stop>
            <stop stop-color="rgba(221, 17, 43, 0.47)" offset="0.43"></stop>
            <stop stop-color="rgba(26, 161, 250, 0.4)" offset="0.56"></stop>
            <stop stop-color="rgba(44, 230, 207, 0.65)" offset="0.67"></stop>
            <stop stop-color="rgba(243, 185, 59, 0.65)" offset="0.77"></stop>
            <stop stop-color="rgba(221, 17, 43, 0.47)" offset="0.88"></stop>
        </linearGradient>
    </defs>
</svg>