<svg xmlns="http://www.w3.org/2000/svg" version="1.1" xmlns:xlink="http://www.w3.org/1999/xlink" xmlns:svgjs="http://svgjs.com/svgjs" width="3000" height="1500" preserveAspectRatio="none" viewBox="0 0 3000 1500">
    <g mask="url(&quot;#SvgjsMask2366&quot;)" fill="none">
        <path d="M16.13 -23.86L49.91 -4.36L49.91 34.64L16.13 54.14L-17.65 34.64L-17.65 -4.36zM49.91 34.64L83.68 54.14L83.68 93.14L49.91 112.64L16.13 93.14L16.13 54.14zM16.13 93.14L49.91 112.64L49.91 151.64L16.13 171.14L-17.65 151.64L-17.65 112.64zM49.91 151.64L83.68 171.14L83.68 210.14L49.91 229.64L16.13 210.14L16.13 171.14zM16.13 210.14L49.91 229.64L49.91 268.64L16.13 288.14L-17.65 268.64L-17.65 229.64zM16.13 327.14L49.91 346.64L49.91 385.64L16.13 405.14L-17.65 385.64L-17.65 346.64zM49.91 385.64L83.68 405.14L83.68 444.14L49.91 463.64L16.13 444.14L16.13 405.14zM16.13 444.14L49.91 463.64L49.91 502.64L16.13 522.14L-17.65 502.64L-17.65 463.64zM16.13 561.14L49.91 580.64L49.91 619.64L16.13 639.14L-17.65 619.64L-17.65 580.64zM49.91 619.64L83.68 639.14L83.68 678.14L49.91 697.64L16.13 678.14L16.13 639.14zM49.91 736.64L83.68 756.14L83.68 795.14L49.91 814.64L16.13 795.14L16.13 756.14zM16.13 912.14L49.91 931.64L49.91 970.64L16.13 990.14L-17.65 970.64L-17.65 931.64zM16.13 1029.14L49.91 1048.64L49.91 1087.64L16.13 1107.14L-17.65 1087.64L-17.65 1048.64zM49.91 1087.64L83.68 1107.14L83.68 1146.14L49.91 1165.64L16.13 1146.14L16.13 1107.14zM16.13 1263.14L49.91 1282.64L49.91 1321.64L16.13 1341.14L-17.65 1321.64L-17.65 1282.64zM49.91 1321.64L83.68 1341.14L83.68 1380.14L49.91 1399.64L16.13 1380.14L16.13 1341.14zM117.46 34.64L151.23 54.14L151.23 93.14L117.46 112.64L83.68 93.14L83.68 54.14zM117.46 151.64L151.23 171.14L151.23 210.14L117.46 229.64L83.68 210.14L83.68 171.14zM117.46 268.64L151.23 288.14L151.23 327.14L117.46 346.64L83.68 327.14L83.68 288.14zM117.46 385.64L151.23 405.14L151.23 444.14L117.46 463.64L83.68 444.14L83.68 405.14zM83.68 561.14L117.46 580.64L117.46 619.64L83.68 639.14L49.91 619.64L49.91 580.64zM117.46 736.64L151.23 756.14L151.23 795.14L117.46 814.64L83.68 795.14L83.68 756.14zM83.68 912.14L117.46 931.64L117.46 970.64L83.68 990.14L49.91 970.64L49.91 931.64zM83.68 1029.14L117.46 1048.64L117.46 1087.64L83.68 1107.14L49.91 1087.64L49.91 1048.64zM117.46 1087.64L151.23 1107.14L151.23 1146.14L117.46 1165.64L83.68 1146.14L83.68 1107.14zM83.68 1146.14L117.46 1165.64L117.46 1204.64L83.68 1224.14L49.91 1204.64L49.91 1165.64zM117.46 1321.64L151.23 1341.14L151.23 1380.14L117.46 1399.64L83.68 1380.14L83.68 1341.14zM83.68 1380.14L117.46 1399.64L117.46 1438.64L83.68 1458.14L49.91 1438.64L49.91 1399.64zM185.01 151.64L218.79 171.14L218.79 210.14L185.01 229.64L151.23 210.14L151.23 171.14zM151.23 561.14L185.01 580.64L185.01 619.64L151.23 639.14L117.46 619.64L117.46 580.64zM185.01 619.64L218.79 639.14L218.79 678.14L185.01 697.64L151.23 678.14L151.23 639.14zM151.23 678.14L185.01 697.64L185.01 736.64L151.23 756.14L117.46 736.64L117.46 697.64zM151.23 795.14L185.01 814.64L185.01 853.64L151.23 873.14L117.46 853.64L117.46 814.64zM185.01 1087.64L218.79 1107.14L218.79 1146.14L185.01 1165.64L151.23 1146.14L151.23 1107.14zM185.01 1204.64L218.79 1224.14L218.79 1263.14L185.01 1282.64L151.23 1263.14L151.23 1224.14zM185.01 1321.64L218.79 1341.14L218.79 1380.14L185.01 1399.64L151.23 1380.14L151.23 1341.14zM151.23 1380.14L185.01 1399.64L185.01 1438.64L151.23 1458.14L117.46 1438.64L117.46 1399.64zM185.01 1438.64L218.79 1458.14L218.79 1497.14L185.01 1516.64L151.23 1497.14L151.23 1458.14zM218.79 -23.86L252.56 -4.36L252.56 34.64L218.79 54.14L185.01 34.64L185.01 -4.36zM252.56 34.64L286.34 54.14L286.34 93.14L252.56 112.64L218.79 93.14L218.79 54.14zM252.56 151.64L286.34 171.14L286.34 210.14L252.56 229.64L218.79 210.14L218.79 171.14zM252.56 502.64L286.34 522.14L286.34 561.14L252.56 580.64L218.79 561.14L218.79 522.14zM218.79 795.14L252.56 814.64L252.56 853.64L218.79 873.14L185.01 853.64L185.01 814.64zM252.56 1087.64L286.34 1107.14L286.34 1146.14L252.56 1165.64L218.79 1146.14L218.79 1107.14zM218.79 1497.14L252.56 1516.64L252.56 1555.64L218.79 1575.14L185.01 1555.64L185.01 1516.64zM286.34 -23.86L320.11 -4.36L320.11 34.64L286.34 54.14L252.56 34.64L252.56 -4.36zM320.11 34.64L353.89 54.14L353.89 93.14L320.11 112.64L286.34 93.14L286.34 54.14zM320.11 151.64L353.89 171.14L353.89 210.14L320.11 229.64L286.34 210.14L286.34 171.14zM286.34 210.14L320.11 229.64L320.11 268.64L286.34 288.14L252.56 268.64L252.56 229.64zM320.11 268.64L353.89 288.14L353.89 327.14L320.11 346.64L286.34 327.14L286.34 288.14zM320.11 385.64L353.89 405.14L353.89 444.14L320.11 463.64L286.34 444.14L286.34 405.14zM320.11 502.64L353.89 522.14L353.89 561.14L320.11 580.64L286.34 561.14L286.34 522.14zM286.34 561.14L320.11 580.64L320.11 619.64L286.34 639.14L252.56 619.64L252.56 580.64zM320.11 619.64L353.89 639.14L353.89 678.14L320.11 697.64L286.34 678.14L286.34 639.14zM286.34 795.14L320.11 814.64L320.11 853.64L286.34 873.14L252.56 853.64L252.56 814.64zM320.11 853.64L353.89 873.14L353.89 912.14L320.11 931.64L286.34 912.14L286.34 873.14zM320.11 970.64L353.89 990.14L353.89 1029.14L320.11 1048.64L286.34 1029.14L286.34 990.14zM286.34 1029.14L320.11 1048.64L320.11 1087.64L286.34 1107.14L252.56 1087.64L252.56 1048.64zM320.11 1321.64L353.89 1341.14L353.89 1380.14L320.11 1399.64L286.34 1380.14L286.34 1341.14zM320.11 1438.64L353.89 1458.14L353.89 1497.14L320.11 1516.64L286.34 1497.14L286.34 1458.14zM387.67 34.64L421.44 54.14L421.44 93.14L387.67 112.64L353.89 93.14L353.89 54.14zM353.89 210.14L387.67 229.64L387.67 268.64L353.89 288.14L320.11 268.64L320.11 229.64zM387.67 502.64L421.44 522.14L421.44 561.14L387.67 580.64L353.89 561.14L353.89 522.14zM353.89 678.14L387.67 697.64L387.67 736.64L353.89 756.14L320.11 736.64L320.11 697.64zM387.67 736.64L421.44 756.14L421.44 795.14L387.67 814.64L353.89 795.14L353.89 756.14zM353.89 912.14L387.67 931.64L387.67 970.64L353.89 990.14L320.11 970.64L320.11 931.64zM387.67 1087.64L421.44 1107.14L421.44 1146.14L387.67 1165.64L353.89 1146.14L353.89 1107.14zM387.67 1204.64L421.44 1224.14L421.44 1263.14L387.67 1282.64L353.89 1263.14L353.89 1224.14zM353.89 1263.14L387.67 1282.64L387.67 1321.64L353.89 1341.14L320.11 1321.64L320.11 1282.64zM387.67 1321.64L421.44 1341.14L421.44 1380.14L387.67 1399.64L353.89 1380.14L353.89 1341.14zM421.44 -23.86L455.22 -4.36L455.22 34.64L421.44 54.14L387.67 34.64L387.67 -4.36zM455.22 34.64L488.99 54.14L488.99 93.14L455.22 112.64L421.44 93.14L421.44 54.14zM421.44 93.14L455.22 112.64L455.22 151.64L421.44 171.14L387.67 151.64L387.67 112.64zM455.22 268.64L488.99 288.14L488.99 327.14L455.22 346.64L421.44 327.14L421.44 288.14zM421.44 327.14L455.22 346.64L455.22 385.64L421.44 405.14L387.67 385.64L387.67 346.64zM455.22 385.64L488.99 405.14L488.99 444.14L455.22 463.64L421.44 444.14L421.44 405.14zM421.44 444.14L455.22 463.64L455.22 502.64L421.44 522.14L387.67 502.64L387.67 463.64zM421.44 561.14L455.22 580.64L455.22 619.64L421.44 639.14L387.67 619.64L387.67 580.64zM421.44 678.14L455.22 697.64L455.22 736.64L421.44 756.14L387.67 736.64L387.67 697.64zM421.44 795.14L455.22 814.64L455.22 853.64L421.44 873.14L387.67 853.64L387.67 814.64zM455.22 970.64L488.99 990.14L488.99 1029.14L455.22 1048.64L421.44 1029.14L421.44 990.14zM455.22 1087.64L488.99 1107.14L488.99 1146.14L455.22 1165.64L421.44 1146.14L421.44 1107.14zM455.22 1438.64L488.99 1458.14L488.99 1497.14L455.22 1516.64L421.44 1497.14L421.44 1458.14zM488.99 -23.86L522.77 -4.36L522.77 34.64L488.99 54.14L455.22 34.64L455.22 -4.36zM522.77 151.64L556.55 171.14L556.55 210.14L522.77 229.64L488.99 210.14L488.99 171.14zM488.99 444.14L522.77 463.64L522.77 502.64L488.99 522.14L455.22 502.64L455.22 463.64zM522.77 502.64L556.55 522.14L556.55 561.14L522.77 580.64L488.99 561.14L488.99 522.14zM522.77 619.64L556.55 639.14L556.55 678.14L522.77 697.64L488.99 678.14L488.99 639.14zM522.77 853.64L556.55 873.14L556.55 912.14L522.77 931.64L488.99 912.14L488.99 873.14zM488.99 912.14L522.77 931.64L522.77 970.64L488.99 990.14L455.22 970.64L455.22 931.64zM522.77 970.64L556.55 990.14L556.55 1029.14L522.77 1048.64L488.99 1029.14L488.99 990.14zM522.77 1087.64L556.55 1107.14L556.55 1146.14L522.77 1165.64L488.99 1146.14L488.99 1107.14zM488.99 1146.14L522.77 1165.64L522.77 1204.64L488.99 1224.14L455.22 1204.64L455.22 1165.64zM522.77 1204.64L556.55 1224.14L556.55 1263.14L522.77 1282.64L488.99 1263.14L488.99 1224.14zM488.99 1263.14L522.77 1282.64L522.77 1321.64L488.99 1341.14L455.22 1321.64L455.22 1282.64zM522.77 1321.64L556.55 1341.14L556.55 1380.14L522.77 1399.64L488.99 1380.14L488.99 1341.14zM556.55 93.14L590.32 112.64L590.32 151.64L556.55 171.14L522.77 151.64L522.77 112.64zM556.55 210.14L590.32 229.64L590.32 268.64L556.55 288.14L522.77 268.64L522.77 229.64zM590.32 268.64L624.1 288.14L624.1 327.14L590.32 346.64L556.55 327.14L556.55 288.14zM556.55 444.14L590.32 463.64L590.32 502.64L556.55 522.14L522.77 502.64L522.77 463.64zM590.32 502.64L624.1 522.14L624.1 561.14L590.32 580.64L556.55 561.14L556.55 522.14zM556.55 561.14L590.32 580.64L590.32 619.64L556.55 639.14L522.77 619.64L522.77 580.64zM590.32 619.64L624.1 639.14L624.1 678.14L590.32 697.64L556.55 678.14L556.55 639.14zM590.32 736.64L624.1 756.14L624.1 795.14L590.32 814.64L556.55 795.14L556.55 756.14zM556.55 795.14L590.32 814.64L590.32 853.64L556.55 873.14L522.77 853.64L522.77 814.64zM590.32 853.64L624.1 873.14L624.1 912.14L590.32 931.64L556.55 912.14L556.55 873.14zM556.55 912.14L590.32 931.64L590.32 970.64L556.55 990.14L522.77 970.64L522.77 931.64zM590.32 1087.64L624.1 1107.14L624.1 1146.14L590.32 1165.64L556.55 1146.14L556.55 1107.14zM556.55 1146.14L590.32 1165.64L590.32 1204.64L556.55 1224.14L522.77 1204.64L522.77 1165.64zM556.55 1497.14L590.32 1516.64L590.32 1555.64L556.55 1575.14L522.77 1555.64L522.77 1516.64zM624.1 93.14L657.87 112.64L657.87 151.64L624.1 171.14L590.32 151.64L590.32 112.64zM624.1 210.14L657.87 229.64L657.87 268.64L624.1 288.14L590.32 268.64L590.32 229.64zM657.87 268.64L691.65 288.14L691.65 327.14L657.87 346.64L624.1 327.14L624.1 288.14zM657.87 385.64L691.65 405.14L691.65 444.14L657.87 463.64L624.1 444.14L624.1 405.14zM624.1 444.14L657.87 463.64L657.87 502.64L624.1 522.14L590.32 502.64L590.32 463.64zM657.87 502.64L691.65 522.14L691.65 561.14L657.87 580.64L624.1 561.14L624.1 522.14zM624.1 561.14L657.87 580.64L657.87 619.64L624.1 639.14L590.32 619.64L590.32 580.64zM624.1 795.14L657.87 814.64L657.87 853.64L624.1 873.14L590.32 853.64L590.32 814.64zM657.87 853.64L691.65 873.14L691.65 912.14L657.87 931.64L624.1 912.14L624.1 873.14zM624.1 912.14L657.87 931.64L657.87 970.64L624.1 990.14L590.32 970.64L590.32 931.64zM657.87 970.64L691.65 990.14L691.65 1029.14L657.87 1048.64L624.1 1029.14L624.1 990.14zM657.87 1087.64L691.65 1107.14L691.65 1146.14L657.87 1165.64L624.1 1146.14L624.1 1107.14zM657.87 1321.64L691.65 1341.14L691.65 1380.14L657.87 1399.64L624.1 1380.14L624.1 1341.14zM624.1 1380.14L657.87 1399.64L657.87 1438.64L624.1 1458.14L590.32 1438.64L590.32 1399.64zM657.87 1438.64L691.65 1458.14L691.65 1497.14L657.87 1516.64L624.1 1497.14L624.1 1458.14zM624.1 1497.14L657.87 1516.64L657.87 1555.64L624.1 1575.14L590.32 1555.64L590.32 1516.64zM725.42 268.64L759.2 288.14L759.2 327.14L725.42 346.64L691.65 327.14L691.65 288.14zM725.42 385.64L759.2 405.14L759.2 444.14L725.42 463.64L691.65 444.14L691.65 405.14zM691.65 444.14L725.42 463.64L725.42 502.64L691.65 522.14L657.87 502.64L657.87 463.64zM725.42 502.64L759.2 522.14L759.2 561.14L725.42 580.64L691.65 561.14L691.65 522.14zM691.65 561.14L725.42 580.64L725.42 619.64L691.65 639.14L657.87 619.64L657.87 580.64zM691.65 678.14L725.42 697.64L725.42 736.64L691.65 756.14L657.87 736.64L657.87 697.64zM691.65 795.14L725.42 814.64L725.42 853.64L691.65 873.14L657.87 853.64L657.87 814.64zM725.42 853.64L759.2 873.14L759.2 912.14L725.42 931.64L691.65 912.14L691.65 873.14zM725.42 1438.64L759.2 1458.14L759.2 1497.14L725.42 1516.64L691.65 1497.14L691.65 1458.14zM759.2 -23.86L792.98 -4.36L792.98 34.64L759.2 54.14L725.42 34.64L725.42 -4.36zM759.2 93.14L792.98 112.64L792.98 151.64L759.2 171.14L725.42 151.64L725.42 112.64zM792.98 385.64L826.75 405.14L826.75 444.14L792.98 463.64L759.2 444.14L759.2 405.14zM759.2 444.14L792.98 463.64L792.98 502.64L759.2 522.14L725.42 502.64L725.42 463.64zM792.98 502.64L826.75 522.14L826.75 561.14L792.98 580.64L759.2 561.14L759.2 522.14zM759.2 561.14L792.98 580.64L792.98 619.64L759.2 639.14L725.42 619.64L725.42 580.64zM792.98 619.64L826.75 639.14L826.75 678.14L792.98 697.64L759.2 678.14L759.2 639.14zM792.98 736.64L826.75 756.14L826.75 795.14L792.98 814.64L759.2 795.14L759.2 756.14zM759.2 1146.14L792.98 1165.64L792.98 1204.64L759.2 1224.14L725.42 1204.64L725.42 1165.64zM759.2 1380.14L792.98 1399.64L792.98 1438.64L759.2 1458.14L725.42 1438.64L725.42 1399.64zM826.75 210.14L860.53 229.64L860.53 268.64L826.75 288.14L792.98 268.64L792.98 229.64zM826.75 327.14L860.53 346.64L860.53 385.64L826.75 405.14L792.98 385.64L792.98 346.64zM860.53 385.64L894.3 405.14L894.3 444.14L860.53 463.64L826.75 444.14L826.75 405.14zM826.75 444.14L860.53 463.64L860.53 502.64L826.75 522.14L792.98 502.64L792.98 463.64zM860.53 502.64L894.3 522.14L894.3 561.14L860.53 580.64L826.75 561.14L826.75 522.14zM860.53 619.64L894.3 639.14L894.3 678.14L860.53 697.64L826.75 678.14L826.75 639.14zM826.75 678.14L860.53 697.64L860.53 736.64L826.75 756.14L792.98 736.64L792.98 697.64zM860.53 736.64L894.3 756.14L894.3 795.14L860.53 814.64L826.75 795.14L826.75 756.14zM826.75 795.14L860.53 814.64L860.53 853.64L826.75 873.14L792.98 853.64L792.98 814.64zM826.75 912.14L860.53 931.64L860.53 970.64L826.75 990.14L792.98 970.64L792.98 931.64zM860.53 1087.64L894.3 1107.14L894.3 1146.14L860.53 1165.64L826.75 1146.14L826.75 1107.14zM826.75 1146.14L860.53 1165.64L860.53 1204.64L826.75 1224.14L792.98 1204.64L792.98 1165.64zM826.75 1263.14L860.53 1282.64L860.53 1321.64L826.75 1341.14L792.98 1321.64L792.98 1282.64zM860.53 1321.64L894.3 1341.14L894.3 1380.14L860.53 1399.64L826.75 1380.14L826.75 1341.14zM860.53 1438.64L894.3 1458.14L894.3 1497.14L860.53 1516.64L826.75 1497.14L826.75 1458.14zM826.75 1497.14L860.53 1516.64L860.53 1555.64L826.75 1575.14L792.98 1555.64L792.98 1516.64zM894.3 -23.86L928.08 -4.36L928.08 34.64L894.3 54.14L860.53 34.64L860.53 -4.36zM894.3 93.14L928.08 112.64L928.08 151.64L894.3 171.14L860.53 151.64L860.53 112.64zM928.08 151.64L961.86 171.14L961.86 210.14L928.08 229.64L894.3 210.14L894.3 171.14zM928.08 268.64L961.86 288.14L961.86 327.14L928.08 346.64L894.3 327.14L894.3 288.14zM928.08 385.64L961.86 405.14L961.86 444.14L928.08 463.64L894.3 444.14L894.3 405.14zM928.08 502.64L961.86 522.14L961.86 561.14L928.08 580.64L894.3 561.14L894.3 522.14zM894.3 561.14L928.08 580.64L928.08 619.64L894.3 639.14L860.53 619.64L860.53 580.64zM928.08 619.64L961.86 639.14L961.86 678.14L928.08 697.64L894.3 678.14L894.3 639.14zM928.08 853.64L961.86 873.14L961.86 912.14L928.08 931.64L894.3 912.14L894.3 873.14zM928.08 1087.64L961.86 1107.14L961.86 1146.14L928.08 1165.64L894.3 1146.14L894.3 1107.14zM894.3 1146.14L928.08 1165.64L928.08 1204.64L894.3 1224.14L860.53 1204.64L860.53 1165.64zM928.08 1204.64L961.86 1224.14L961.86 1263.14L928.08 1282.64L894.3 1263.14L894.3 1224.14zM928.08 1321.64L961.86 1341.14L961.86 1380.14L928.08 1399.64L894.3 1380.14L894.3 1341.14zM894.3 1380.14L928.08 1399.64L928.08 1438.64L894.3 1458.14L860.53 1438.64L860.53 1399.64zM894.3 1497.14L928.08 1516.64L928.08 1555.64L894.3 1575.14L860.53 1555.64L860.53 1516.64zM995.63 151.64L1029.41 171.14L1029.41 210.14L995.63 229.64L961.86 210.14L961.86 171.14zM961.86 210.14L995.63 229.64L995.63 268.64L961.86 288.14L928.08 268.64L928.08 229.64zM995.63 268.64L1029.41 288.14L1029.41 327.14L995.63 346.64L961.86 327.14L961.86 288.14zM995.63 385.64L1029.41 405.14L1029.41 444.14L995.63 463.64L961.86 444.14L961.86 405.14zM961.86 444.14L995.63 463.64L995.63 502.64L961.86 522.14L928.08 502.64L928.08 463.64zM995.63 502.64L1029.41 522.14L1029.41 561.14L995.63 580.64L961.86 561.14L961.86 522.14zM961.86 795.14L995.63 814.64L995.63 853.64L961.86 873.14L928.08 853.64L928.08 814.64zM995.63 853.64L1029.41 873.14L1029.41 912.14L995.63 931.64L961.86 912.14L961.86 873.14zM995.63 970.64L1029.41 990.14L1029.41 1029.14L995.63 1048.64L961.86 1029.14L961.86 990.14zM961.86 1029.14L995.63 1048.64L995.63 1087.64L961.86 1107.14L928.08 1087.64L928.08 1048.64zM995.63 1087.64L1029.41 1107.14L1029.41 1146.14L995.63 1165.64L961.86 1146.14L961.86 1107.14zM961.86 1146.14L995.63 1165.64L995.63 1204.64L961.86 1224.14L928.08 1204.64L928.08 1165.64zM961.86 1263.14L995.63 1282.64L995.63 1321.64L961.86 1341.14L928.08 1321.64L928.08 1282.64zM995.63 1321.64L1029.41 1341.14L1029.41 1380.14L995.63 1399.64L961.86 1380.14L961.86 1341.14zM961.86 1380.14L995.63 1399.64L995.63 1438.64L961.86 1458.14L928.08 1438.64L928.08 1399.64zM995.63 1438.64L1029.41 1458.14L1029.41 1497.14L995.63 1516.64L961.86 1497.14L961.86 1458.14zM1063.18 34.64L1096.96 54.14L1096.96 93.14L1063.18 112.64L1029.41 93.14L1029.41 54.14zM1029.41 93.14L1063.18 112.64L1063.18 151.64L1029.41 171.14L995.63 151.64L995.63 112.64zM1063.18 151.64L1096.96 171.14L1096.96 210.14L1063.18 229.64L1029.41 210.14L1029.41 171.14zM1063.18 268.64L1096.96 288.14L1096.96 327.14L1063.18 346.64L1029.41 327.14L1029.41 288.14zM1063.18 385.64L1096.96 405.14L1096.96 444.14L1063.18 463.64L1029.41 444.14L1029.41 405.14zM1063.18 502.64L1096.96 522.14L1096.96 561.14L1063.18 580.64L1029.41 561.14L1029.41 522.14zM1029.41 678.14L1063.18 697.64L1063.18 736.64L1029.41 756.14L995.63 736.64L995.63 697.64zM1063.18 736.64L1096.96 756.14L1096.96 795.14L1063.18 814.64L1029.41 795.14L1029.41 756.14zM1029.41 1146.14L1063.18 1165.64L1063.18 1204.64L1029.41 1224.14L995.63 1204.64L995.63 1165.64zM1063.18 1204.64L1096.96 1224.14L1096.96 1263.14L1063.18 1282.64L1029.41 1263.14L1029.41 1224.14zM1029.41 1263.14L1063.18 1282.64L1063.18 1321.64L1029.41 1341.14L995.63 1321.64L995.63 1282.64zM1029.41 1380.14L1063.18 1399.64L1063.18 1438.64L1029.41 1458.14L995.63 1438.64L995.63 1399.64zM1130.74 268.64L1164.51 288.14L1164.51 327.14L1130.74 346.64L1096.96 327.14L1096.96 288.14zM1130.74 385.64L1164.51 405.14L1164.51 444.14L1130.74 463.64L1096.96 444.14L1096.96 405.14zM1130.74 502.64L1164.51 522.14L1164.51 561.14L1130.74 580.64L1096.96 561.14L1096.96 522.14zM1096.96 561.14L1130.74 580.64L1130.74 619.64L1096.96 639.14L1063.18 619.64L1063.18 580.64zM1096.96 678.14L1130.74 697.64L1130.74 736.64L1096.96 756.14L1063.18 736.64L1063.18 697.64zM1130.74 736.64L1164.51 756.14L1164.51 795.14L1130.74 814.64L1096.96 795.14L1096.96 756.14zM1096.96 795.14L1130.74 814.64L1130.74 853.64L1096.96 873.14L1063.18 853.64L1063.18 814.64zM1096.96 912.14L1130.74 931.64L1130.74 970.64L1096.96 990.14L1063.18 970.64L1063.18 931.64zM1096.96 1380.14L1130.74 1399.64L1130.74 1438.64L1096.96 1458.14L1063.18 1438.64L1063.18 1399.64zM1130.74 1438.64L1164.51 1458.14L1164.51 1497.14L1130.74 1516.64L1096.96 1497.14L1096.96 1458.14zM1164.51 93.14L1198.29 112.64L1198.29 151.64L1164.51 171.14L1130.74 151.64L1130.74 112.64zM1164.51 327.14L1198.29 346.64L1198.29 385.64L1164.51 405.14L1130.74 385.64L1130.74 346.64zM1164.51 444.14L1198.29 463.64L1198.29 502.64L1164.51 522.14L1130.74 502.64L1130.74 463.64zM1198.29 502.64L1232.06 522.14L1232.06 561.14L1198.29 580.64L1164.51 561.14L1164.51 522.14zM1198.29 619.64L1232.06 639.14L1232.06 678.14L1198.29 697.64L1164.51 678.14L1164.51 639.14zM1198.29 853.64L1232.06 873.14L1232.06 912.14L1198.29 931.64L1164.51 912.14L1164.51 873.14zM1164.51 912.14L1198.29 931.64L1198.29 970.64L1164.51 990.14L1130.74 970.64L1130.74 931.64zM1198.29 970.64L1232.06 990.14L1232.06 1029.14L1198.29 1048.64L1164.51 1029.14L1164.51 990.14zM1198.29 1087.64L1232.06 1107.14L1232.06 1146.14L1198.29 1165.64L1164.51 1146.14L1164.51 1107.14zM1198.29 1204.64L1232.06 1224.14L1232.06 1263.14L1198.29 1282.64L1164.51 1263.14L1164.51 1224.14zM1198.29 1321.64L1232.06 1341.14L1232.06 1380.14L1198.29 1399.64L1164.51 1380.14L1164.51 1341.14zM1198.29 1438.64L1232.06 1458.14L1232.06 1497.14L1198.29 1516.64L1164.51 1497.14L1164.51 1458.14zM1164.51 1497.14L1198.29 1516.64L1198.29 1555.64L1164.51 1575.14L1130.74 1555.64L1130.74 1516.64zM1232.06 -23.86L1265.84 -4.36L1265.84 34.64L1232.06 54.14L1198.29 34.64L1198.29 -4.36zM1265.84 151.64L1299.62 171.14L1299.62 210.14L1265.84 229.64L1232.06 210.14L1232.06 171.14zM1265.84 385.64L1299.62 405.14L1299.62 444.14L1265.84 463.64L1232.06 444.14L1232.06 405.14zM1265.84 502.64L1299.62 522.14L1299.62 561.14L1265.84 580.64L1232.06 561.14L1232.06 522.14zM1265.84 736.64L1299.62 756.14L1299.62 795.14L1265.84 814.64L1232.06 795.14L1232.06 756.14zM1265.84 853.64L1299.62 873.14L1299.62 912.14L1265.84 931.64L1232.06 912.14L1232.06 873.14zM1232.06 1029.14L1265.84 1048.64L1265.84 1087.64L1232.06 1107.14L1198.29 1087.64L1198.29 1048.64zM1265.84 1087.64L1299.62 1107.14L1299.62 1146.14L1265.84 1165.64L1232.06 1146.14L1232.06 1107.14zM1232.06 1146.14L1265.84 1165.64L1265.84 1204.64L1232.06 1224.14L1198.29 1204.64L1198.29 1165.64zM1265.84 1204.64L1299.62 1224.14L1299.62 1263.14L1265.84 1282.64L1232.06 1263.14L1232.06 1224.14zM1232.06 1263.14L1265.84 1282.64L1265.84 1321.64L1232.06 1341.14L1198.29 1321.64L1198.29 1282.64zM1265.84 1321.64L1299.62 1341.14L1299.62 1380.14L1265.84 1399.64L1232.06 1380.14L1232.06 1341.14zM1265.84 1438.64L1299.62 1458.14L1299.62 1497.14L1265.84 1516.64L1232.06 1497.14L1232.06 1458.14zM1232.06 1497.14L1265.84 1516.64L1265.84 1555.64L1232.06 1575.14L1198.29 1555.64L1198.29 1516.64zM1333.39 34.64L1367.17 54.14L1367.17 93.14L1333.39 112.64L1299.62 93.14L1299.62 54.14zM1299.62 93.14L1333.39 112.64L1333.39 151.64L1299.62 171.14L1265.84 151.64L1265.84 112.64zM1333.39 151.64L1367.17 171.14L1367.17 210.14L1333.39 229.64L1299.62 210.14L1299.62 171.14zM1299.62 444.14L1333.39 463.64L1333.39 502.64L1299.62 522.14L1265.84 502.64L1265.84 463.64zM1333.39 502.64L1367.17 522.14L1367.17 561.14L1333.39 580.64L1299.62 561.14L1299.62 522.14zM1333.39 619.64L1367.17 639.14L1367.17 678.14L1333.39 697.64L1299.62 678.14L1299.62 639.14zM1333.39 1321.64L1367.17 1341.14L1367.17 1380.14L1333.39 1399.64L1299.62 1380.14L1299.62 1341.14zM1367.17 93.14L1400.94 112.64L1400.94 151.64L1367.17 171.14L1333.39 151.64L1333.39 112.64zM1400.94 268.64L1434.72 288.14L1434.72 327.14L1400.94 346.64L1367.17 327.14L1367.17 288.14zM1367.17 444.14L1400.94 463.64L1400.94 502.64L1367.17 522.14L1333.39 502.64L1333.39 463.64zM1367.17 561.14L1400.94 580.64L1400.94 619.64L1367.17 639.14L1333.39 619.64L1333.39 580.64zM1400.94 619.64L1434.72 639.14L1434.72 678.14L1400.94 697.64L1367.17 678.14L1367.17 639.14zM1367.17 678.14L1400.94 697.64L1400.94 736.64L1367.17 756.14L1333.39 736.64L1333.39 697.64zM1367.17 795.14L1400.94 814.64L1400.94 853.64L1367.17 873.14L1333.39 853.64L1333.39 814.64zM1400.94 1087.64L1434.72 1107.14L1434.72 1146.14L1400.94 1165.64L1367.17 1146.14L1367.17 1107.14zM1400.94 1204.64L1434.72 1224.14L1434.72 1263.14L1400.94 1282.64L1367.17 1263.14L1367.17 1224.14zM1367.17 1263.14L1400.94 1282.64L1400.94 1321.64L1367.17 1341.14L1333.39 1321.64L1333.39 1282.64zM1400.94 1321.64L1434.72 1341.14L1434.72 1380.14L1400.94 1399.64L1367.17 1380.14L1367.17 1341.14zM1367.17 1380.14L1400.94 1399.64L1400.94 1438.64L1367.17 1458.14L1333.39 1438.64L1333.39 1399.64zM1434.72 -23.86L1468.5 -4.36L1468.5 34.64L1434.72 54.14L1400.94 34.64L1400.94 -4.36zM1434.72 210.14L1468.5 229.64L1468.5 268.64L1434.72 288.14L1400.94 268.64L1400.94 229.64zM1468.5 268.64L1502.27 288.14L1502.27 327.14L1468.5 346.64L1434.72 327.14L1434.72 288.14zM1434.72 327.14L1468.5 346.64L1468.5 385.64L1434.72 405.14L1400.94 385.64L1400.94 346.64zM1434.72 561.14L1468.5 580.64L1468.5 619.64L1434.72 639.14L1400.94 619.64L1400.94 580.64zM1434.72 678.14L1468.5 697.64L1468.5 736.64L1434.72 756.14L1400.94 736.64L1400.94 697.64zM1468.5 736.64L1502.27 756.14L1502.27 795.14L1468.5 814.64L1434.72 795.14L1434.72 756.14zM1434.72 795.14L1468.5 814.64L1468.5 853.64L1434.72 873.14L1400.94 853.64L1400.94 814.64zM1468.5 853.64L1502.27 873.14L1502.27 912.14L1468.5 931.64L1434.72 912.14L1434.72 873.14zM1468.5 970.64L1502.27 990.14L1502.27 1029.14L1468.5 1048.64L1434.72 1029.14L1434.72 990.14zM1434.72 1263.14L1468.5 1282.64L1468.5 1321.64L1434.72 1341.14L1400.94 1321.64L1400.94 1282.64zM1468.5 1321.64L1502.27 1341.14L1502.27 1380.14L1468.5 1399.64L1434.72 1380.14L1434.72 1341.14zM1434.72 1380.14L1468.5 1399.64L1468.5 1438.64L1434.72 1458.14L1400.94 1438.64L1400.94 1399.64zM1434.72 1497.14L1468.5 1516.64L1468.5 1555.64L1434.72 1575.14L1400.94 1555.64L1400.94 1516.64zM1502.27 93.14L1536.05 112.64L1536.05 151.64L1502.27 171.14L1468.5 151.64L1468.5 112.64zM1502.27 210.14L1536.05 229.64L1536.05 268.64L1502.27 288.14L1468.5 268.64L1468.5 229.64zM1502.27 327.14L1536.05 346.64L1536.05 385.64L1502.27 405.14L1468.5 385.64L1468.5 346.64zM1536.05 385.64L1569.82 405.14L1569.82 444.14L1536.05 463.64L1502.27 444.14L1502.27 405.14zM1536.05 502.64L1569.82 522.14L1569.82 561.14L1536.05 580.64L1502.27 561.14L1502.27 522.14zM1536.05 736.64L1569.82 756.14L1569.82 795.14L1536.05 814.64L1502.27 795.14L1502.27 756.14zM1502.27 795.14L1536.05 814.64L1536.05 853.64L1502.27 873.14L1468.5 853.64L1468.5 814.64zM1502.27 912.14L1536.05 931.64L1536.05 970.64L1502.27 990.14L1468.5 970.64L1468.5 931.64zM1536.05 970.64L1569.82 990.14L1569.82 1029.14L1536.05 1048.64L1502.27 1029.14L1502.27 990.14zM1502.27 1263.14L1536.05 1282.64L1536.05 1321.64L1502.27 1341.14L1468.5 1321.64L1468.5 1282.64zM1502.27 1380.14L1536.05 1399.64L1536.05 1438.64L1502.27 1458.14L1468.5 1438.64L1468.5 1399.64zM1502.27 1497.14L1536.05 1516.64L1536.05 1555.64L1502.27 1575.14L1468.5 1555.64L1468.5 1516.64zM1569.82 -23.86L1603.6 -4.36L1603.6 34.64L1569.82 54.14L1536.05 34.64L1536.05 -4.36zM1603.6 34.64L1637.38 54.14L1637.38 93.14L1603.6 112.64L1569.82 93.14L1569.82 54.14zM1603.6 268.64L1637.38 288.14L1637.38 327.14L1603.6 346.64L1569.82 327.14L1569.82 288.14zM1603.6 385.64L1637.38 405.14L1637.38 444.14L1603.6 463.64L1569.82 444.14L1569.82 405.14zM1603.6 502.64L1637.38 522.14L1637.38 561.14L1603.6 580.64L1569.82 561.14L1569.82 522.14zM1603.6 619.64L1637.38 639.14L1637.38 678.14L1603.6 697.64L1569.82 678.14L1569.82 639.14zM1603.6 736.64L1637.38 756.14L1637.38 795.14L1603.6 814.64L1569.82 795.14L1569.82 756.14zM1569.82 912.14L1603.6 931.64L1603.6 970.64L1569.82 990.14L1536.05 970.64L1536.05 931.64zM1603.6 970.64L1637.38 990.14L1637.38 1029.14L1603.6 1048.64L1569.82 1029.14L1569.82 990.14zM1569.82 1029.14L1603.6 1048.64L1603.6 1087.64L1569.82 1107.14L1536.05 1087.64L1536.05 1048.64zM1603.6 1087.64L1637.38 1107.14L1637.38 1146.14L1603.6 1165.64L1569.82 1146.14L1569.82 1107.14zM1603.6 1204.64L1637.38 1224.14L1637.38 1263.14L1603.6 1282.64L1569.82 1263.14L1569.82 1224.14zM1603.6 1438.64L1637.38 1458.14L1637.38 1497.14L1603.6 1516.64L1569.82 1497.14L1569.82 1458.14zM1569.82 1497.14L1603.6 1516.64L1603.6 1555.64L1569.82 1575.14L1536.05 1555.64L1536.05 1516.64zM1637.38 93.14L1671.15 112.64L1671.15 151.64L1637.38 171.14L1603.6 151.64L1603.6 112.64zM1671.15 151.64L1704.93 171.14L1704.93 210.14L1671.15 229.64L1637.38 210.14L1637.38 171.14zM1671.15 385.64L1704.93 405.14L1704.93 444.14L1671.15 463.64L1637.38 444.14L1637.38 405.14zM1637.38 561.14L1671.15 580.64L1671.15 619.64L1637.38 639.14L1603.6 619.64L1603.6 580.64zM1671.15 619.64L1704.93 639.14L1704.93 678.14L1671.15 697.64L1637.38 678.14L1637.38 639.14zM1637.38 795.14L1671.15 814.64L1671.15 853.64L1637.38 873.14L1603.6 853.64L1603.6 814.64zM1671.15 853.64L1704.93 873.14L1704.93 912.14L1671.15 931.64L1637.38 912.14L1637.38 873.14zM1671.15 1087.64L1704.93 1107.14L1704.93 1146.14L1671.15 1165.64L1637.38 1146.14L1637.38 1107.14zM1637.38 1146.14L1671.15 1165.64L1671.15 1204.64L1637.38 1224.14L1603.6 1204.64L1603.6 1165.64zM1671.15 1438.64L1704.93 1458.14L1704.93 1497.14L1671.15 1516.64L1637.38 1497.14L1637.38 1458.14zM1738.7 34.64L1772.48 54.14L1772.48 93.14L1738.7 112.64L1704.93 93.14L1704.93 54.14zM1738.7 385.64L1772.48 405.14L1772.48 444.14L1738.7 463.64L1704.93 444.14L1704.93 405.14zM1738.7 502.64L1772.48 522.14L1772.48 561.14L1738.7 580.64L1704.93 561.14L1704.93 522.14zM1704.93 561.14L1738.7 580.64L1738.7 619.64L1704.93 639.14L1671.15 619.64L1671.15 580.64zM1738.7 736.64L1772.48 756.14L1772.48 795.14L1738.7 814.64L1704.93 795.14L1704.93 756.14zM1738.7 853.64L1772.48 873.14L1772.48 912.14L1738.7 931.64L1704.93 912.14L1704.93 873.14zM1704.93 912.14L1738.7 931.64L1738.7 970.64L1704.93 990.14L1671.15 970.64L1671.15 931.64zM1704.93 1029.14L1738.7 1048.64L1738.7 1087.64L1704.93 1107.14L1671.15 1087.64L1671.15 1048.64zM1738.7 1321.64L1772.48 1341.14L1772.48 1380.14L1738.7 1399.64L1704.93 1380.14L1704.93 1341.14zM1704.93 1380.14L1738.7 1399.64L1738.7 1438.64L1704.93 1458.14L1671.15 1438.64L1671.15 1399.64zM1704.93 1497.14L1738.7 1516.64L1738.7 1555.64L1704.93 1575.14L1671.15 1555.64L1671.15 1516.64zM1772.48 -23.86L1806.26 -4.36L1806.26 34.64L1772.48 54.14L1738.7 34.64L1738.7 -4.36zM1772.48 93.14L1806.26 112.64L1806.26 151.64L1772.48 171.14L1738.7 151.64L1738.7 112.64zM1806.26 151.64L1840.03 171.14L1840.03 210.14L1806.26 229.64L1772.48 210.14L1772.48 171.14zM1806.26 268.64L1840.03 288.14L1840.03 327.14L1806.26 346.64L1772.48 327.14L1772.48 288.14zM1772.48 327.14L1806.26 346.64L1806.26 385.64L1772.48 405.14L1738.7 385.64L1738.7 346.64zM1772.48 444.14L1806.26 463.64L1806.26 502.64L1772.48 522.14L1738.7 502.64L1738.7 463.64zM1772.48 678.14L1806.26 697.64L1806.26 736.64L1772.48 756.14L1738.7 736.64L1738.7 697.64zM1772.48 795.14L1806.26 814.64L1806.26 853.64L1772.48 873.14L1738.7 853.64L1738.7 814.64zM1772.48 912.14L1806.26 931.64L1806.26 970.64L1772.48 990.14L1738.7 970.64L1738.7 931.64zM1806.26 970.64L1840.03 990.14L1840.03 1029.14L1806.26 1048.64L1772.48 1029.14L1772.48 990.14zM1772.48 1029.14L1806.26 1048.64L1806.26 1087.64L1772.48 1107.14L1738.7 1087.64L1738.7 1048.64zM1806.26 1087.64L1840.03 1107.14L1840.03 1146.14L1806.26 1165.64L1772.48 1146.14L1772.48 1107.14zM1806.26 1204.64L1840.03 1224.14L1840.03 1263.14L1806.26 1282.64L1772.48 1263.14L1772.48 1224.14zM1806.26 1321.64L1840.03 1341.14L1840.03 1380.14L1806.26 1399.64L1772.48 1380.14L1772.48 1341.14zM1772.48 1497.14L1806.26 1516.64L1806.26 1555.64L1772.48 1575.14L1738.7 1555.64L1738.7 1516.64zM1873.81 34.64L1907.58 54.14L1907.58 93.14L1873.81 112.64L1840.03 93.14L1840.03 54.14zM1873.81 268.64L1907.58 288.14L1907.58 327.14L1873.81 346.64L1840.03 327.14L1840.03 288.14zM1873.81 502.64L1907.58 522.14L1907.58 561.14L1873.81 580.64L1840.03 561.14L1840.03 522.14zM1840.03 561.14L1873.81 580.64L1873.81 619.64L1840.03 639.14L1806.26 619.64L1806.26 580.64zM1840.03 678.14L1873.81 697.64L1873.81 736.64L1840.03 756.14L1806.26 736.64L1806.26 697.64zM1873.81 736.64L1907.58 756.14L1907.58 795.14L1873.81 814.64L1840.03 795.14L1840.03 756.14zM1840.03 1029.14L1873.81 1048.64L1873.81 1087.64L1840.03 1107.14L1806.26 1087.64L1806.26 1048.64zM1840.03 1146.14L1873.81 1165.64L1873.81 1204.64L1840.03 1224.14L1806.26 1204.64L1806.26 1165.64zM1840.03 1263.14L1873.81 1282.64L1873.81 1321.64L1840.03 1341.14L1806.26 1321.64L1806.26 1282.64zM1840.03 1380.14L1873.81 1399.64L1873.81 1438.64L1840.03 1458.14L1806.26 1438.64L1806.26 1399.64zM1873.81 1438.64L1907.58 1458.14L1907.58 1497.14L1873.81 1516.64L1840.03 1497.14L1840.03 1458.14zM1840.03 1497.14L1873.81 1516.64L1873.81 1555.64L1840.03 1575.14L1806.26 1555.64L1806.26 1516.64zM1907.58 -23.86L1941.36 -4.36L1941.36 34.64L1907.58 54.14L1873.81 34.64L1873.81 -4.36zM1941.36 34.64L1975.14 54.14L1975.14 93.14L1941.36 112.64L1907.58 93.14L1907.58 54.14zM1941.36 151.64L1975.14 171.14L1975.14 210.14L1941.36 229.64L1907.58 210.14L1907.58 171.14zM1907.58 210.14L1941.36 229.64L1941.36 268.64L1907.58 288.14L1873.81 268.64L1873.81 229.64zM1907.58 327.14L1941.36 346.64L1941.36 385.64L1907.58 405.14L1873.81 385.64L1873.81 346.64zM1907.58 561.14L1941.36 580.64L1941.36 619.64L1907.58 639.14L1873.81 619.64L1873.81 580.64zM1907.58 678.14L1941.36 697.64L1941.36 736.64L1907.58 756.14L1873.81 736.64L1873.81 697.64zM1941.36 736.64L1975.14 756.14L1975.14 795.14L1941.36 814.64L1907.58 795.14L1907.58 756.14zM1907.58 795.14L1941.36 814.64L1941.36 853.64L1907.58 873.14L1873.81 853.64L1873.81 814.64zM1941.36 970.64L1975.14 990.14L1975.14 1029.14L1941.36 1048.64L1907.58 1029.14L1907.58 990.14zM1907.58 1029.14L1941.36 1048.64L1941.36 1087.64L1907.58 1107.14L1873.81 1087.64L1873.81 1048.64zM1941.36 1087.64L1975.14 1107.14L1975.14 1146.14L1941.36 1165.64L1907.58 1146.14L1907.58 1107.14zM1907.58 1146.14L1941.36 1165.64L1941.36 1204.64L1907.58 1224.14L1873.81 1204.64L1873.81 1165.64zM1941.36 1204.64L1975.14 1224.14L1975.14 1263.14L1941.36 1282.64L1907.58 1263.14L1907.58 1224.14zM1907.58 1263.14L1941.36 1282.64L1941.36 1321.64L1907.58 1341.14L1873.81 1321.64L1873.81 1282.64zM1975.14 -23.86L2008.91 -4.36L2008.91 34.64L1975.14 54.14L1941.36 34.64L1941.36 -4.36zM1975.14 93.14L2008.91 112.64L2008.91 151.64L1975.14 171.14L1941.36 151.64L1941.36 112.64zM2008.91 151.64L2042.69 171.14L2042.69 210.14L2008.91 229.64L1975.14 210.14L1975.14 171.14zM2008.91 268.64L2042.69 288.14L2042.69 327.14L2008.91 346.64L1975.14 327.14L1975.14 288.14zM1975.14 327.14L2008.91 346.64L2008.91 385.64L1975.14 405.14L1941.36 385.64L1941.36 346.64zM2008.91 385.64L2042.69 405.14L2042.69 444.14L2008.91 463.64L1975.14 444.14L1975.14 405.14zM1975.14 444.14L2008.91 463.64L2008.91 502.64L1975.14 522.14L1941.36 502.64L1941.36 463.64zM2008.91 619.64L2042.69 639.14L2042.69 678.14L2008.91 697.64L1975.14 678.14L1975.14 639.14zM1975.14 912.14L2008.91 931.64L2008.91 970.64L1975.14 990.14L1941.36 970.64L1941.36 931.64zM1975.14 1029.14L2008.91 1048.64L2008.91 1087.64L1975.14 1107.14L1941.36 1087.64L1941.36 1048.64zM1975.14 1146.14L2008.91 1165.64L2008.91 1204.64L1975.14 1224.14L1941.36 1204.64L1941.36 1165.64zM1975.14 1380.14L2008.91 1399.64L2008.91 1438.64L1975.14 1458.14L1941.36 1438.64L1941.36 1399.64zM1975.14 1497.14L2008.91 1516.64L2008.91 1555.64L1975.14 1575.14L1941.36 1555.64L1941.36 1516.64zM2042.69 -23.86L2076.46 -4.36L2076.46 34.64L2042.69 54.14L2008.91 34.64L2008.91 -4.36zM2042.69 210.14L2076.46 229.64L2076.46 268.64L2042.69 288.14L2008.91 268.64L2008.91 229.64zM2042.69 327.14L2076.46 346.64L2076.46 385.64L2042.69 405.14L2008.91 385.64L2008.91 346.64zM2042.69 444.14L2076.46 463.64L2076.46 502.64L2042.69 522.14L2008.91 502.64L2008.91 463.64zM2076.46 619.64L2110.24 639.14L2110.24 678.14L2076.46 697.64L2042.69 678.14L2042.69 639.14zM2042.69 795.14L2076.46 814.64L2076.46 853.64L2042.69 873.14L2008.91 853.64L2008.91 814.64zM2042.69 912.14L2076.46 931.64L2076.46 970.64L2042.69 990.14L2008.91 970.64L2008.91 931.64zM2076.46 970.64L2110.24 990.14L2110.24 1029.14L2076.46 1048.64L2042.69 1029.14L2042.69 990.14zM2076.46 1204.64L2110.24 1224.14L2110.24 1263.14L2076.46 1282.64L2042.69 1263.14L2042.69 1224.14zM2076.46 1438.64L2110.24 1458.14L2110.24 1497.14L2076.46 1516.64L2042.69 1497.14L2042.69 1458.14zM2110.24 -23.86L2144.01 -4.36L2144.01 34.64L2110.24 54.14L2076.46 34.64L2076.46 -4.36zM2144.01 34.64L2177.79 54.14L2177.79 93.14L2144.01 112.64L2110.24 93.14L2110.24 54.14zM2110.24 327.14L2144.01 346.64L2144.01 385.64L2110.24 405.14L2076.46 385.64L2076.46 346.64zM2144.01 385.64L2177.79 405.14L2177.79 444.14L2144.01 463.64L2110.24 444.14L2110.24 405.14zM2110.24 444.14L2144.01 463.64L2144.01 502.64L2110.24 522.14L2076.46 502.64L2076.46 463.64zM2144.01 502.64L2177.79 522.14L2177.79 561.14L2144.01 580.64L2110.24 561.14L2110.24 522.14zM2110.24 561.14L2144.01 580.64L2144.01 619.64L2110.24 639.14L2076.46 619.64L2076.46 580.64zM2144.01 619.64L2177.79 639.14L2177.79 678.14L2144.01 697.64L2110.24 678.14L2110.24 639.14zM2110.24 678.14L2144.01 697.64L2144.01 736.64L2110.24 756.14L2076.46 736.64L2076.46 697.64zM2144.01 736.64L2177.79 756.14L2177.79 795.14L2144.01 814.64L2110.24 795.14L2110.24 756.14zM2110.24 795.14L2144.01 814.64L2144.01 853.64L2110.24 873.14L2076.46 853.64L2076.46 814.64zM2144.01 970.64L2177.79 990.14L2177.79 1029.14L2144.01 1048.64L2110.24 1029.14L2110.24 990.14zM2144.01 1087.64L2177.79 1107.14L2177.79 1146.14L2144.01 1165.64L2110.24 1146.14L2110.24 1107.14zM2110.24 1263.14L2144.01 1282.64L2144.01 1321.64L2110.24 1341.14L2076.46 1321.64L2076.46 1282.64zM2144.01 1321.64L2177.79 1341.14L2177.79 1380.14L2144.01 1399.64L2110.24 1380.14L2110.24 1341.14zM2177.79 93.14L2211.57 112.64L2211.57 151.64L2177.79 171.14L2144.01 151.64L2144.01 112.64zM2177.79 210.14L2211.57 229.64L2211.57 268.64L2177.79 288.14L2144.01 268.64L2144.01 229.64zM2211.57 268.64L2245.34 288.14L2245.34 327.14L2211.57 346.64L2177.79 327.14L2177.79 288.14zM2211.57 385.64L2245.34 405.14L2245.34 444.14L2211.57 463.64L2177.79 444.14L2177.79 405.14zM2211.57 502.64L2245.34 522.14L2245.34 561.14L2211.57 580.64L2177.79 561.14L2177.79 522.14zM2177.79 561.14L2211.57 580.64L2211.57 619.64L2177.79 639.14L2144.01 619.64L2144.01 580.64zM2211.57 619.64L2245.34 639.14L2245.34 678.14L2211.57 697.64L2177.79 678.14L2177.79 639.14zM2177.79 912.14L2211.57 931.64L2211.57 970.64L2177.79 990.14L2144.01 970.64L2144.01 931.64zM2177.79 1029.14L2211.57 1048.64L2211.57 1087.64L2177.79 1107.14L2144.01 1087.64L2144.01 1048.64zM2177.79 1146.14L2211.57 1165.64L2211.57 1204.64L2177.79 1224.14L2144.01 1204.64L2144.01 1165.64zM2211.57 1204.64L2245.34 1224.14L2245.34 1263.14L2211.57 1282.64L2177.79 1263.14L2177.79 1224.14zM2177.79 1263.14L2211.57 1282.64L2211.57 1321.64L2177.79 1341.14L2144.01 1321.64L2144.01 1282.64zM2177.79 1380.14L2211.57 1399.64L2211.57 1438.64L2177.79 1458.14L2144.01 1438.64L2144.01 1399.64zM2245.34 210.14L2279.12 229.64L2279.12 268.64L2245.34 288.14L2211.57 268.64L2211.57 229.64zM2245.34 327.14L2279.12 346.64L2279.12 385.64L2245.34 405.14L2211.57 385.64L2211.57 346.64zM2279.12 385.64L2312.89 405.14L2312.89 444.14L2279.12 463.64L2245.34 444.14L2245.34 405.14zM2245.34 444.14L2279.12 463.64L2279.12 502.64L2245.34 522.14L2211.57 502.64L2211.57 463.64zM2279.12 502.64L2312.89 522.14L2312.89 561.14L2279.12 580.64L2245.34 561.14L2245.34 522.14zM2279.12 619.64L2312.89 639.14L2312.89 678.14L2279.12 697.64L2245.34 678.14L2245.34 639.14zM2245.34 678.14L2279.12 697.64L2279.12 736.64L2245.34 756.14L2211.57 736.64L2211.57 697.64zM2245.34 912.14L2279.12 931.64L2279.12 970.64L2245.34 990.14L2211.57 970.64L2211.57 931.64zM2279.12 1204.64L2312.89 1224.14L2312.89 1263.14L2279.12 1282.64L2245.34 1263.14L2245.34 1224.14zM2279.12 1321.64L2312.89 1341.14L2312.89 1380.14L2279.12 1399.64L2245.34 1380.14L2245.34 1341.14zM2245.34 1380.14L2279.12 1399.64L2279.12 1438.64L2245.34 1458.14L2211.57 1438.64L2211.57 1399.64zM2312.89 -23.86L2346.67 -4.36L2346.67 34.64L2312.89 54.14L2279.12 34.64L2279.12 -4.36zM2312.89 93.14L2346.67 112.64L2346.67 151.64L2312.89 171.14L2279.12 151.64L2279.12 112.64zM2312.89 444.14L2346.67 463.64L2346.67 502.64L2312.89 522.14L2279.12 502.64L2279.12 463.64zM2312.89 561.14L2346.67 580.64L2346.67 619.64L2312.89 639.14L2279.12 619.64L2279.12 580.64zM2346.67 619.64L2380.45 639.14L2380.45 678.14L2346.67 697.64L2312.89 678.14L2312.89 639.14zM2346.67 736.64L2380.45 756.14L2380.45 795.14L2346.67 814.64L2312.89 795.14L2312.89 756.14zM2312.89 795.14L2346.67 814.64L2346.67 853.64L2312.89 873.14L2279.12 853.64L2279.12 814.64zM2346.67 853.64L2380.45 873.14L2380.45 912.14L2346.67 931.64L2312.89 912.14L2312.89 873.14zM2312.89 912.14L2346.67 931.64L2346.67 970.64L2312.89 990.14L2279.12 970.64L2279.12 931.64zM2312.89 1029.14L2346.67 1048.64L2346.67 1087.64L2312.89 1107.14L2279.12 1087.64L2279.12 1048.64zM2346.67 1204.64L2380.45 1224.14L2380.45 1263.14L2346.67 1282.64L2312.89 1263.14L2312.89 1224.14zM2346.67 1438.64L2380.45 1458.14L2380.45 1497.14L2346.67 1516.64L2312.89 1497.14L2312.89 1458.14zM2312.89 1497.14L2346.67 1516.64L2346.67 1555.64L2312.89 1575.14L2279.12 1555.64L2279.12 1516.64zM2380.45 93.14L2414.22 112.64L2414.22 151.64L2380.45 171.14L2346.67 151.64L2346.67 112.64zM2414.22 268.64L2448 288.14L2448 327.14L2414.22 346.64L2380.45 327.14L2380.45 288.14zM2380.45 327.14L2414.22 346.64L2414.22 385.64L2380.45 405.14L2346.67 385.64L2346.67 346.64zM2380.45 444.14L2414.22 463.64L2414.22 502.64L2380.45 522.14L2346.67 502.64L2346.67 463.64zM2380.45 795.14L2414.22 814.64L2414.22 853.64L2380.45 873.14L2346.67 853.64L2346.67 814.64zM2414.22 853.64L2448 873.14L2448 912.14L2414.22 931.64L2380.45 912.14L2380.45 873.14zM2380.45 912.14L2414.22 931.64L2414.22 970.64L2380.45 990.14L2346.67 970.64L2346.67 931.64zM2414.22 970.64L2448 990.14L2448 1029.14L2414.22 1048.64L2380.45 1029.14L2380.45 990.14zM2414.22 1438.64L2448 1458.14L2448 1497.14L2414.22 1516.64L2380.45 1497.14L2380.45 1458.14zM2380.45 1497.14L2414.22 1516.64L2414.22 1555.64L2380.45 1575.14L2346.67 1555.64L2346.67 1516.64zM2481.77 34.64L2515.55 54.14L2515.55 93.14L2481.77 112.64L2448 93.14L2448 54.14zM2481.77 151.64L2515.55 171.14L2515.55 210.14L2481.77 229.64L2448 210.14L2448 171.14zM2481.77 385.64L2515.55 405.14L2515.55 444.14L2481.77 463.64L2448 444.14L2448 405.14zM2448 444.14L2481.77 463.64L2481.77 502.64L2448 522.14L2414.22 502.64L2414.22 463.64zM2448 678.14L2481.77 697.64L2481.77 736.64L2448 756.14L2414.22 736.64L2414.22 697.64zM2481.77 736.64L2515.55 756.14L2515.55 795.14L2481.77 814.64L2448 795.14L2448 756.14zM2448 795.14L2481.77 814.64L2481.77 853.64L2448 873.14L2414.22 853.64L2414.22 814.64zM2448 912.14L2481.77 931.64L2481.77 970.64L2448 990.14L2414.22 970.64L2414.22 931.64zM2448 1029.14L2481.77 1048.64L2481.77 1087.64L2448 1107.14L2414.22 1087.64L2414.22 1048.64zM2481.77 1204.64L2515.55 1224.14L2515.55 1263.14L2481.77 1282.64L2448 1263.14L2448 1224.14zM2481.77 1321.64L2515.55 1341.14L2515.55 1380.14L2481.77 1399.64L2448 1380.14L2448 1341.14zM2448 1380.14L2481.77 1399.64L2481.77 1438.64L2448 1458.14L2414.22 1438.64L2414.22 1399.64zM2481.77 1438.64L2515.55 1458.14L2515.55 1497.14L2481.77 1516.64L2448 1497.14L2448 1458.14zM2515.55 -23.86L2549.33 -4.36L2549.33 34.64L2515.55 54.14L2481.77 34.64L2481.77 -4.36zM2549.33 34.64L2583.1 54.14L2583.1 93.14L2549.33 112.64L2515.55 93.14L2515.55 54.14zM2515.55 93.14L2549.33 112.64L2549.33 151.64L2515.55 171.14L2481.77 151.64L2481.77 112.64zM2515.55 210.14L2549.33 229.64L2549.33 268.64L2515.55 288.14L2481.77 268.64L2481.77 229.64zM2549.33 385.64L2583.1 405.14L2583.1 444.14L2549.33 463.64L2515.55 444.14L2515.55 405.14zM2549.33 502.64L2583.1 522.14L2583.1 561.14L2549.33 580.64L2515.55 561.14L2515.55 522.14zM2549.33 619.64L2583.1 639.14L2583.1 678.14L2549.33 697.64L2515.55 678.14L2515.55 639.14zM2515.55 795.14L2549.33 814.64L2549.33 853.64L2515.55 873.14L2481.77 853.64L2481.77 814.64zM2515.55 912.14L2549.33 931.64L2549.33 970.64L2515.55 990.14L2481.77 970.64L2481.77 931.64zM2549.33 970.64L2583.1 990.14L2583.1 1029.14L2549.33 1048.64L2515.55 1029.14L2515.55 990.14zM2515.55 1146.14L2549.33 1165.64L2549.33 1204.64L2515.55 1224.14L2481.77 1204.64L2481.77 1165.64zM2515.55 1380.14L2549.33 1399.64L2549.33 1438.64L2515.55 1458.14L2481.77 1438.64L2481.77 1399.64zM2549.33 1438.64L2583.1 1458.14L2583.1 1497.14L2549.33 1516.64L2515.55 1497.14L2515.55 1458.14zM2515.55 1497.14L2549.33 1516.64L2549.33 1555.64L2515.55 1575.14L2481.77 1555.64L2481.77 1516.64zM2616.88 268.64L2650.65 288.14L2650.65 327.14L2616.88 346.64L2583.1 327.14L2583.1 288.14zM2583.1 444.14L2616.88 463.64L2616.88 502.64L2583.1 522.14L2549.33 502.64L2549.33 463.64zM2616.88 853.64L2650.65 873.14L2650.65 912.14L2616.88 931.64L2583.1 912.14L2583.1 873.14zM2616.88 970.64L2650.65 990.14L2650.65 1029.14L2616.88 1048.64L2583.1 1029.14L2583.1 990.14zM2583.1 1146.14L2616.88 1165.64L2616.88 1204.64L2583.1 1224.14L2549.33 1204.64L2549.33 1165.64zM2616.88 1204.64L2650.65 1224.14L2650.65 1263.14L2616.88 1282.64L2583.1 1263.14L2583.1 1224.14zM2583.1 1263.14L2616.88 1282.64L2616.88 1321.64L2583.1 1341.14L2549.33 1321.64L2549.33 1282.64zM2616.88 1321.64L2650.65 1341.14L2650.65 1380.14L2616.88 1399.64L2583.1 1380.14L2583.1 1341.14zM2616.88 1438.64L2650.65 1458.14L2650.65 1497.14L2616.88 1516.64L2583.1 1497.14L2583.1 1458.14zM2583.1 1497.14L2616.88 1516.64L2616.88 1555.64L2583.1 1575.14L2549.33 1555.64L2549.33 1516.64zM2650.65 -23.86L2684.43 -4.36L2684.43 34.64L2650.65 54.14L2616.88 34.64L2616.88 -4.36zM2684.43 34.64L2718.21 54.14L2718.21 93.14L2684.43 112.64L2650.65 93.14L2650.65 54.14zM2650.65 93.14L2684.43 112.64L2684.43 151.64L2650.65 171.14L2616.88 151.64L2616.88 112.64zM2684.43 151.64L2718.21 171.14L2718.21 210.14L2684.43 229.64L2650.65 210.14L2650.65 171.14zM2684.43 268.64L2718.21 288.14L2718.21 327.14L2684.43 346.64L2650.65 327.14L2650.65 288.14zM2650.65 327.14L2684.43 346.64L2684.43 385.64L2650.65 405.14L2616.88 385.64L2616.88 346.64zM2684.43 502.64L2718.21 522.14L2718.21 561.14L2684.43 580.64L2650.65 561.14L2650.65 522.14zM2650.65 561.14L2684.43 580.64L2684.43 619.64L2650.65 639.14L2616.88 619.64L2616.88 580.64zM2684.43 619.64L2718.21 639.14L2718.21 678.14L2684.43 697.64L2650.65 678.14L2650.65 639.14zM2650.65 678.14L2684.43 697.64L2684.43 736.64L2650.65 756.14L2616.88 736.64L2616.88 697.64zM2650.65 795.14L2684.43 814.64L2684.43 853.64L2650.65 873.14L2616.88 853.64L2616.88 814.64zM2684.43 853.64L2718.21 873.14L2718.21 912.14L2684.43 931.64L2650.65 912.14L2650.65 873.14zM2684.43 970.64L2718.21 990.14L2718.21 1029.14L2684.43 1048.64L2650.65 1029.14L2650.65 990.14zM2650.65 1029.14L2684.43 1048.64L2684.43 1087.64L2650.65 1107.14L2616.88 1087.64L2616.88 1048.64zM2650.65 1263.14L2684.43 1282.64L2684.43 1321.64L2650.65 1341.14L2616.88 1321.64L2616.88 1282.64zM2650.65 1380.14L2684.43 1399.64L2684.43 1438.64L2650.65 1458.14L2616.88 1438.64L2616.88 1399.64zM2650.65 1497.14L2684.43 1516.64L2684.43 1555.64L2650.65 1575.14L2616.88 1555.64L2616.88 1516.64zM2718.21 -23.86L2751.98 -4.36L2751.98 34.64L2718.21 54.14L2684.43 34.64L2684.43 -4.36zM2751.98 151.64L2785.76 171.14L2785.76 210.14L2751.98 229.64L2718.21 210.14L2718.21 171.14zM2718.21 210.14L2751.98 229.64L2751.98 268.64L2718.21 288.14L2684.43 268.64L2684.43 229.64zM2718.21 444.14L2751.98 463.64L2751.98 502.64L2718.21 522.14L2684.43 502.64L2684.43 463.64zM2751.98 502.64L2785.76 522.14L2785.76 561.14L2751.98 580.64L2718.21 561.14L2718.21 522.14zM2751.98 619.64L2785.76 639.14L2785.76 678.14L2751.98 697.64L2718.21 678.14L2718.21 639.14zM2718.21 795.14L2751.98 814.64L2751.98 853.64L2718.21 873.14L2684.43 853.64L2684.43 814.64zM2751.98 853.64L2785.76 873.14L2785.76 912.14L2751.98 931.64L2718.21 912.14L2718.21 873.14zM2718.21 912.14L2751.98 931.64L2751.98 970.64L2718.21 990.14L2684.43 970.64L2684.43 931.64zM2718.21 1029.14L2751.98 1048.64L2751.98 1087.64L2718.21 1107.14L2684.43 1087.64L2684.43 1048.64zM2751.98 1087.64L2785.76 1107.14L2785.76 1146.14L2751.98 1165.64L2718.21 1146.14L2718.21 1107.14zM2718.21 1263.14L2751.98 1282.64L2751.98 1321.64L2718.21 1341.14L2684.43 1321.64L2684.43 1282.64zM2751.98 1321.64L2785.76 1341.14L2785.76 1380.14L2751.98 1399.64L2718.21 1380.14L2718.21 1341.14zM2718.21 1380.14L2751.98 1399.64L2751.98 1438.64L2718.21 1458.14L2684.43 1438.64L2684.43 1399.64zM2819.53 151.64L2853.31 171.14L2853.31 210.14L2819.53 229.64L2785.76 210.14L2785.76 171.14zM2819.53 268.64L2853.31 288.14L2853.31 327.14L2819.53 346.64L2785.76 327.14L2785.76 288.14zM2785.76 327.14L2819.53 346.64L2819.53 385.64L2785.76 405.14L2751.98 385.64L2751.98 346.64zM2819.53 385.64L2853.31 405.14L2853.31 444.14L2819.53 463.64L2785.76 444.14L2785.76 405.14zM2785.76 561.14L2819.53 580.64L2819.53 619.64L2785.76 639.14L2751.98 619.64L2751.98 580.64zM2785.76 678.14L2819.53 697.64L2819.53 736.64L2785.76 756.14L2751.98 736.64L2751.98 697.64zM2785.76 795.14L2819.53 814.64L2819.53 853.64L2785.76 873.14L2751.98 853.64L2751.98 814.64zM2819.53 853.64L2853.31 873.14L2853.31 912.14L2819.53 931.64L2785.76 912.14L2785.76 873.14zM2819.53 970.64L2853.31 990.14L2853.31 1029.14L2819.53 1048.64L2785.76 1029.14L2785.76 990.14zM2785.76 1029.14L2819.53 1048.64L2819.53 1087.64L2785.76 1107.14L2751.98 1087.64L2751.98 1048.64zM2819.53 1087.64L2853.31 1107.14L2853.31 1146.14L2819.53 1165.64L2785.76 1146.14L2785.76 1107.14zM2819.53 1204.64L2853.31 1224.14L2853.31 1263.14L2819.53 1282.64L2785.76 1263.14L2785.76 1224.14zM2785.76 1380.14L2819.53 1399.64L2819.53 1438.64L2785.76 1458.14L2751.98 1438.64L2751.98 1399.64zM2785.76 1497.14L2819.53 1516.64L2819.53 1555.64L2785.76 1575.14L2751.98 1555.64L2751.98 1516.64zM2853.31 93.14L2887.09 112.64L2887.09 151.64L2853.31 171.14L2819.53 151.64L2819.53 112.64zM2853.31 210.14L2887.09 229.64L2887.09 268.64L2853.31 288.14L2819.53 268.64L2819.53 229.64zM2887.09 268.64L2920.86 288.14L2920.86 327.14L2887.09 346.64L2853.31 327.14L2853.31 288.14zM2853.31 327.14L2887.09 346.64L2887.09 385.64L2853.31 405.14L2819.53 385.64L2819.53 346.64zM2853.31 444.14L2887.09 463.64L2887.09 502.64L2853.31 522.14L2819.53 502.64L2819.53 463.64zM2853.31 561.14L2887.09 580.64L2887.09 619.64L2853.31 639.14L2819.53 619.64L2819.53 580.64zM2853.31 795.14L2887.09 814.64L2887.09 853.64L2853.31 873.14L2819.53 853.64L2819.53 814.64zM2887.09 853.64L2920.86 873.14L2920.86 912.14L2887.09 931.64L2853.31 912.14L2853.31 873.14zM2853.31 912.14L2887.09 931.64L2887.09 970.64L2853.31 990.14L2819.53 970.64L2819.53 931.64zM2853.31 1146.14L2887.09 1165.64L2887.09 1204.64L2853.31 1224.14L2819.53 1204.64L2819.53 1165.64zM2887.09 1204.64L2920.86 1224.14L2920.86 1263.14L2887.09 1282.64L2853.31 1263.14L2853.31 1224.14zM2853.31 1263.14L2887.09 1282.64L2887.09 1321.64L2853.31 1341.14L2819.53 1321.64L2819.53 1282.64zM2887.09 1321.64L2920.86 1341.14L2920.86 1380.14L2887.09 1399.64L2853.31 1380.14L2853.31 1341.14zM2954.64 151.64L2988.41 171.14L2988.41 210.14L2954.64 229.64L2920.86 210.14L2920.86 171.14zM2954.64 268.64L2988.41 288.14L2988.41 327.14L2954.64 346.64L2920.86 327.14L2920.86 288.14zM2920.86 327.14L2954.64 346.64L2954.64 385.64L2920.86 405.14L2887.09 385.64L2887.09 346.64zM2920.86 444.14L2954.64 463.64L2954.64 502.64L2920.86 522.14L2887.09 502.64L2887.09 463.64zM2954.64 502.64L2988.41 522.14L2988.41 561.14L2954.64 580.64L2920.86 561.14L2920.86 522.14zM2920.86 561.14L2954.64 580.64L2954.64 619.64L2920.86 639.14L2887.09 619.64L2887.09 580.64zM2954.64 619.64L2988.41 639.14L2988.41 678.14L2954.64 697.64L2920.86 678.14L2920.86 639.14zM2954.64 736.64L2988.41 756.14L2988.41 795.14L2954.64 814.64L2920.86 795.14L2920.86 756.14zM2954.64 853.64L2988.41 873.14L2988.41 912.14L2954.64 931.64L2920.86 912.14L2920.86 873.14zM2920.86 912.14L2954.64 931.64L2954.64 970.64L2920.86 990.14L2887.09 970.64L2887.09 931.64zM2920.86 1029.14L2954.64 1048.64L2954.64 1087.64L2920.86 1107.14L2887.09 1087.64L2887.09 1048.64zM2920.86 1146.14L2954.64 1165.64L2954.64 1204.64L2920.86 1224.14L2887.09 1204.64L2887.09 1165.64zM2920.86 1380.14L2954.64 1399.64L2954.64 1438.64L2920.86 1458.14L2887.09 1438.64L2887.09 1399.64zM2954.64 1438.64L2988.41 1458.14L2988.41 1497.14L2954.64 1516.64L2920.86 1497.14L2920.86 1458.14zM2920.86 1497.14L2954.64 1516.64L2954.64 1555.64L2920.86 1575.14L2887.09 1555.64L2887.09 1516.64zM3022.19 34.64L3055.97 54.14L3055.97 93.14L3022.19 112.64L2988.41 93.14L2988.41 54.14zM2988.41 210.14L3022.19 229.64L3022.19 268.64L2988.41 288.14L2954.64 268.64L2954.64 229.64zM3022.19 268.64L3055.97 288.14L3055.97 327.14L3022.19 346.64L2988.41 327.14L2988.41 288.14zM2988.41 327.14L3022.19 346.64L3022.19 385.64L2988.41 405.14L2954.64 385.64L2954.64 346.64zM2988.41 444.14L3022.19 463.64L3022.19 502.64L2988.41 522.14L2954.64 502.64L2954.64 463.64zM3022.19 502.64L3055.97 522.14L3055.97 561.14L3022.19 580.64L2988.41 561.14L2988.41 522.14zM2988.41 678.14L3022.19 697.64L3022.19 736.64L2988.41 756.14L2954.64 736.64L2954.64 697.64zM3022.19 736.64L3055.97 756.14L3055.97 795.14L3022.19 814.64L2988.41 795.14L2988.41 756.14zM2988.41 795.14L3022.19 814.64L3022.19 853.64L2988.41 873.14L2954.64 853.64L2954.64 814.64zM2988.41 912.14L3022.19 931.64L3022.19 970.64L2988.41 990.14L2954.64 970.64L2954.64 931.64zM3022.19 970.64L3055.97 990.14L3055.97 1029.14L3022.19 1048.64L2988.41 1029.14L2988.41 990.14zM3022.19 1087.64L3055.97 1107.14L3055.97 1146.14L3022.19 1165.64L2988.41 1146.14L2988.41 1107.14zM2988.41 1146.14L3022.19 1165.64L3022.19 1204.64L2988.41 1224.14L2954.64 1204.64L2954.64 1165.64zM3022.19 1321.64L3055.97 1341.14L3055.97 1380.14L3022.19 1399.64L2988.41 1380.14L2988.41 1341.14zM3022.19 1438.64L3055.97 1458.14L3055.97 1497.14L3022.19 1516.64L2988.41 1497.14L2988.41 1458.14z" stroke="url(#SvgjsLinearGradient2367)" stroke-width="2"></path>
    </g>
    <defs>
        <mask id="SvgjsMask2366">
            <rect width="3000" height="1500" fill="#ffffff"></rect>
        </mask>
        <linearGradient x1="375" y1="-375" x2="2625" y2="1875" gradientUnits="userSpaceOnUse" id="SvgjsLinearGradient2367">
            <stop stop-color="rgba(209, 150, 25, 0.52)" offset="0.2"></stop>
            <stop stop-color="rgba(200, 211, 42, 0.42)" offset="0.41"></stop>
            <stop stop-color="rgba(25, 68, 225, 0.22)" offset="0.59"></stop>
            <stop stop-color="rgba(132, 33, 255, 0.26)" offset="0.81"></stop>
        </linearGradient>
    </defs>
</svg>